<svg width="151" height="50" viewBox="0 0 151 50" fill="none" xmlns="http://www.w3.org/2000/svg">
<g clip-path="url(#clip0_953_2624)">
<path d="M93.2125 30.6426L92.2876 34.6841H92.2474L91.3627 30.6426H89.5531L88.1055 36.8569H89.4325L90.3574 32.8589H90.3976L91.3225 36.8569H93.0919L94.5798 30.6426H93.2125Z" fill="#333333"/>
<path d="M85.532 30.6426C84.2854 32.7285 83.0388 34.8579 81.752 36.8569H83.4007L84.406 35.0752H86.1754L86.2558 36.8569H87.8643C87.6633 34.771 87.422 32.685 87.3416 30.6426H85.532ZM85.0896 33.7715L86.095 31.9897L86.1754 33.7715H85.0896Z" fill="#333333"/>
<path d="M96.4705 32.2934C96.5509 31.9458 96.9932 31.8589 97.2345 31.8589C97.6769 31.8589 97.9584 31.9893 98.2398 32.1631C98.2398 32.1631 98.5213 30.9463 98.5213 30.8594C98.0388 30.5552 97.516 30.5117 97.1541 30.5117C95.7868 30.5117 95.1032 31.3809 94.9826 32.1196C94.7413 33.5537 96.3096 34.3794 96.1488 35.0312C96.0281 35.5093 95.5858 35.5527 95.3445 35.5527C94.9022 35.5527 94.5 35.4223 94.1381 35.2051L93.8164 36.6391C94.2587 36.813 94.8619 36.9433 95.3445 36.9433C96.9128 36.9433 97.4356 36.1611 97.5964 35.3354C97.8779 33.9014 96.2694 33.1191 96.4705 32.2934Z" fill="#333333"/>
<path d="M81.0279 32.2934C81.1083 31.9458 81.5507 31.8589 81.792 31.8589C82.2343 31.8589 82.5158 31.9893 82.7973 32.1631C82.7973 32.1631 83.1592 30.9897 83.1592 30.9028C82.6364 30.5552 82.0734 30.5117 81.7115 30.5117C80.3443 30.5117 79.6607 31.3809 79.54 32.1196C79.2988 33.5537 80.8671 34.3794 80.7062 35.0312C80.5856 35.5093 80.1432 35.5527 79.9019 35.5527C79.4596 35.5527 79.0575 35.4223 78.7358 35.2051L78.4141 36.6391C78.8564 36.813 79.4596 36.9433 79.9422 36.9433C81.5105 36.9433 82.0332 36.1611 82.1941 35.3354C82.4756 33.9014 80.8671 33.1191 81.0279 32.2934Z" fill="#333333"/>
<path d="M120.357 34.6841L119.472 30.6426H117.663L116.215 36.8569H117.542L118.467 32.8589L119.432 36.8569H121.201L122.649 30.6426H121.322L120.357 34.6841Z" fill="#333333"/>
<path d="M103.428 31.9448H105.639L105.961 30.5977H102.221L100.773 36.8554H102.302L102.865 34.3784H104.714L105.036 33.0312H103.186L103.428 31.9448Z" fill="#333333"/>
<path d="M127.475 30.6426H123.212L122.891 31.9463H124.258L123.132 36.8569H124.62L125.786 31.9463H127.153L127.475 30.6426Z" fill="#333333"/>
<path d="M128.039 30.6426L126.551 36.8569H128.079L129.527 30.6426H128.039Z" fill="#333333"/>
<path d="M132.984 34.3799L133.306 33.0327H131.376L131.657 31.9463H134.07L134.351 30.6426H130.451L128.963 36.8569H132.904L133.225 35.5097H130.813L131.094 34.3799H132.984Z" fill="#333333"/>
<path d="M142.716 34.3799L143.038 33.0327H141.067L141.349 31.9463H143.721L144.043 30.6426H140.142L138.654 36.8569H142.595L142.877 35.5097H140.504L140.745 34.3799H142.716Z" fill="#333333"/>
<path d="M114.245 30.5117C112.516 30.5117 111.068 31.6851 110.586 33.7275C110.103 35.8134 110.988 36.9433 112.717 36.9433C114.326 36.9433 115.814 35.9004 116.336 33.9014C116.899 31.7285 115.934 30.5117 114.245 30.5117ZM114.848 33.7275C114.607 34.727 113.883 35.5962 113.039 35.5962C112.114 35.5962 111.873 34.6836 112.114 33.7275C112.355 32.7715 112.999 31.8589 113.924 31.8589C114.808 31.9023 115.049 32.728 114.848 33.7275Z" fill="#333333"/>
<path d="M145.852 32.2934C145.933 31.9893 146.375 31.8589 146.616 31.8589C147.059 31.8589 147.34 31.9893 147.622 32.1631C147.622 32.1631 147.903 30.9463 147.903 30.8594C147.42 30.5552 146.898 30.5117 146.536 30.5117C145.169 30.5117 144.485 31.3809 144.364 32.1196C144.123 33.5537 145.691 34.3794 145.53 35.0312C145.41 35.5093 144.967 35.5527 144.726 35.5527C144.284 35.5527 143.882 35.4223 143.56 35.2051L143.238 36.6391C143.681 36.813 144.284 36.9433 144.766 36.9433C146.335 36.9433 146.857 36.1611 147.018 35.3354C147.26 33.9014 145.651 33.0757 145.852 32.2934Z" fill="#333333"/>
<path d="M108.978 34.1177C109.742 33.9873 110.345 33.2051 110.506 32.5098C110.787 31.293 110.466 30.5977 109.179 30.5977H106.605L105.117 36.812H106.565L107.731 31.9014H108.495C108.696 31.9014 109.179 31.9014 109.018 32.5532C108.897 33.0312 108.535 33.3789 107.892 33.3789H107.852H107.369L107.892 36.812H109.541C109.5 36.8554 108.978 34.248 108.978 34.1177Z" fill="#333333"/>
<path d="M137.487 34.1177C138.251 33.9438 138.855 33.2051 139.016 32.5098C139.297 31.293 138.975 30.5977 137.688 30.5977H135.115L133.627 36.812H135.075L136.241 31.9014H137.005C137.206 31.9014 137.688 31.9014 137.528 32.5532C137.407 33.0312 137.045 33.3789 136.402 33.3789H136.361H135.879L136.402 36.812H138.05C138.05 36.8554 137.528 34.248 137.487 34.1177Z" fill="#333333"/>
<path d="M57.7854 36.8569L58.1071 35.5097H55.6944L55.9758 34.3799H57.9463L58.268 33.0762H56.2975L56.5388 31.9463H58.9516L59.2733 30.6426H55.3324L53.8848 36.8569H57.7854Z" fill="#333333"/>
<path d="M47.6116 36.8569L47.9333 35.5097H45.5607L45.802 34.3799H47.7322L48.0539 33.0327H46.1237L46.365 31.9463H48.7778L49.0995 30.6426H45.1988L43.7109 36.8569H47.6116Z" fill="#333333"/>
<path d="M61.0833 36.9433C61.3648 36.9433 62.1288 36.8564 62.531 36.7695L62.8929 35.3354C62.4505 35.4658 61.968 35.5962 61.3648 35.5962C60.4399 35.5962 60.1986 34.6836 60.4399 33.7275C60.6409 32.9018 61.3246 31.8589 62.531 31.8589C62.9331 31.8589 63.295 31.9893 63.6167 32.1196L63.9384 30.729C63.5765 30.5986 63.0135 30.5117 62.5712 30.5117C60.842 30.5117 59.3943 31.6851 58.8716 33.7275C58.4292 35.8134 59.3541 36.9433 61.0833 36.9433Z" fill="#333333"/>
<path d="M64.823 36.8569L66.3109 30.6426H64.7828L63.2949 36.8569H64.823Z" fill="#333333"/>
<path d="M39.2484 32.3808H39.2886L39.2082 36.8569H40.495L42.5458 32.3808L41.5003 36.8569H42.7871L44.275 30.6426H42.2643L40.4548 34.5537L40.5352 30.6426H38.4039L36.916 36.8569H38.2028L39.2484 32.3808Z" fill="#333333"/>
<path d="M67.0743 36.8569L67.9992 32.8589L68.9643 36.8569H70.7337L72.1813 30.6426H70.8543L69.8892 34.6841L69.0045 30.6426H67.1949L65.707 36.8569H67.0743Z" fill="#333333"/>
<path d="M54.0458 33.728C54.649 31.0771 53.3622 30.6426 52.6384 30.6426H49.9039L48.416 36.8569H50.8288C52.5177 36.8569 53.6035 35.5532 54.0458 33.728ZM52.5177 33.728C52.3167 34.6406 51.7135 35.5097 50.869 35.5097H50.2256L51.0701 31.9463H51.8341C52.5982 31.9463 52.7992 32.5547 52.5177 33.728Z" fill="#333333"/>
<path d="M74.0728 32.2934C74.1533 31.9458 74.5956 31.8589 74.8369 31.8589C75.2792 31.8589 75.5607 31.9893 75.8422 32.1631C75.8422 32.1631 76.1237 30.9463 76.1237 30.8594C75.6411 30.5552 75.1184 30.5117 74.7565 30.5117C73.3892 30.5117 72.7056 31.3809 72.585 32.1196C72.3437 33.5537 73.912 34.3794 73.7511 35.0312C73.6305 35.5093 73.1881 35.5527 72.9469 35.5527C72.5045 35.5527 72.1024 35.4223 71.7807 35.2051L71.459 36.6391C71.9013 36.813 72.5045 36.9433 72.9871 36.9433C74.5554 36.9433 75.0782 36.1611 75.239 35.3354C75.4803 33.9014 73.8718 33.1191 74.0728 32.2934Z" fill="#333333"/>
<path d="M36.2324 38.5508H147.22" stroke="#E2001A" stroke-width="0.609"/>
<path d="M15.4814 40.29C15.8835 40.0292 16.8486 39.4643 16.9692 39.4208C17.1703 39.2905 17.2507 39.3339 17.2507 39.3774C17.2909 39.5947 17.2507 40.1161 17.5322 40.2031C17.6126 40.2465 17.8137 40.1161 17.8539 40.2031C17.9344 40.3769 17.9746 40.3334 17.9746 40.3769C18.0148 40.4203 18.1354 40.4203 18.1756 40.4203C18.2561 40.5073 18.1756 40.5942 18.2158 40.6376C18.2963 40.7245 18.4169 40.5942 18.4973 40.5942C18.618 40.6376 18.6582 40.768 18.618 40.8549C18.5778 41.0287 18.6582 41.1157 18.8995 40.8984C19.0201 40.768 19.0201 40.8549 19.1407 40.768C19.2212 40.7245 19.3016 40.7245 19.3418 40.768C19.382 40.8115 19.4624 40.8984 19.5429 40.9418C19.6233 40.9853 19.7439 40.9418 19.8244 40.9853C19.9048 41.0287 19.9048 41.1591 19.9852 41.2026C20.0656 41.2026 20.1461 41.0287 20.1863 41.1157C20.3471 41.246 20.0656 41.5068 20.2667 41.5502C20.3471 41.5937 20.3873 41.5068 20.4678 41.4633C20.5482 41.4633 20.5884 41.3329 20.6688 41.3329C20.7493 41.3329 20.7895 41.4198 20.8699 41.3764C20.9503 41.3329 20.9905 41.2895 21.071 41.246C21.1514 41.2026 21.272 41.2026 21.3122 41.1591C21.3927 41.1156 21.3122 40.9418 21.5133 40.9853C21.7144 41.0287 21.4731 41.246 21.5535 41.2895C21.634 41.3329 21.7948 41.2895 21.835 41.2895C21.9557 41.246 22.0361 41.1157 22.0763 40.9853C22.1165 40.8549 22.2774 40.4638 22.3578 40.3334C22.4382 40.2031 22.5991 39.8119 22.6795 39.6381C22.7599 39.5077 23.1218 38.8559 23.162 38.769C23.2023 38.6821 23.3229 38.5517 23.3631 38.4648C23.4033 38.3779 23.4838 38.1606 23.5642 37.9433C23.6446 37.7695 23.8859 37.3784 23.9261 37.2915C23.9663 37.2045 24.1272 36.7265 24.2076 36.5961C24.288 36.4658 24.5293 36.1181 24.5695 35.9443C24.6097 35.7705 24.7706 35.4663 24.7706 35.4663L24.9314 35.1621C24.9314 35.1621 24.9716 35.0317 25.0521 34.8579C25.1325 34.684 25.3738 34.2929 25.4542 34.1626C25.5346 34.0322 25.6955 33.728 25.6955 33.728L25.8563 33.3803L25.977 33.1196C25.977 33.1196 26.0574 32.8154 26.0976 32.7285C26.1378 32.6416 26.2987 32.4243 26.3389 32.3374C26.3791 32.207 26.4997 31.729 26.5802 31.5986C26.6606 31.4682 26.9823 30.8164 27.0225 30.686C27.0627 30.5556 27.3844 29.9038 27.4246 29.7734C27.4648 29.6431 27.4648 29.4692 27.5051 29.3823C27.5453 29.2954 27.7061 29.0781 27.7061 29.0347C27.7463 28.9912 27.9474 28.3828 27.9876 28.2959C28.0278 28.209 28.0278 28.0352 28.1485 28.0352C28.2289 28.0352 28.3093 28.1221 28.3495 28.2524C28.43 28.3394 28.5506 28.3394 28.631 28.4263C28.7114 28.5132 28.9527 28.8174 28.9929 28.8608C28.9929 28.9043 29.1538 28.9043 29.194 28.9912C29.2342 29.0347 29.2342 29.165 29.3146 29.165C29.3549 29.2085 29.5961 29.3389 29.6363 29.4258C29.6766 29.5127 29.757 29.6431 29.7972 29.6865C29.8374 29.73 30.1189 29.9038 30.1591 29.9907C30.1993 30.0776 30.5612 30.5557 30.6015 30.6426C30.6417 30.7295 30.6819 30.8598 30.7221 30.9468C30.7623 30.9902 30.883 31.0771 30.9232 31.164C30.9232 31.2075 30.9634 31.4248 30.9634 31.5117C31.0036 31.5552 31.1644 31.6421 31.1644 31.6855C31.2047 31.729 31.2449 31.9897 31.2851 32.0332C31.3253 32.0766 31.4057 32.1201 31.4057 32.1636C31.4459 32.207 31.4459 32.4678 31.4862 32.5112C31.5264 32.5547 31.647 32.7719 31.647 32.8589C31.6872 32.9458 31.8079 33.1196 31.8079 33.1631C31.8481 33.2065 31.8481 33.4673 31.8481 33.5542C31.8883 33.6411 31.9687 33.8149 31.9687 33.8584C31.9687 33.9018 32.0089 34.0322 32.0089 34.0322L32.0893 34.2495C32.0893 34.2495 32.21 34.4668 32.21 34.5537C32.21 34.6406 32.2502 34.7275 32.2502 34.8144C32.2502 34.8579 32.3708 35.0317 32.3708 35.0752C32.3708 35.1186 32.4915 35.4228 32.4915 35.4228C32.4915 35.4228 32.4513 35.6836 32.4915 35.727C32.5317 35.7705 32.6121 35.9443 32.6121 36.0312C32.6121 36.0747 32.5719 36.2485 32.5719 36.2485L32.6121 36.3354C32.6121 36.3354 32.5719 36.4658 32.6121 36.5092C32.6523 36.5527 32.5719 36.6831 32.6121 36.6831C32.6523 36.7265 32.7328 36.9873 32.7328 36.9873C32.6523 37.0742 27.9474 39.4208 25.9367 40.4638C23.0414 41.9413 16.9692 45.2006 16.3258 45.5917C15.6824 45.9828 15.2803 46.2436 15.1194 46.1566C14.7575 45.9394 14.1945 45.4179 13.7924 44.2011C13.4707 43.2016 13.4707 42.3759 13.4707 41.9413C13.5109 41.6371 13.4707 41.3764 13.913 41.1157C14.2348 41.0722 15.0792 40.5507 15.4814 40.29Z" fill="#E2001A"/>
<path d="M7.11656 22.2987C7.15678 22.3421 7.2372 22.3421 7.31763 22.3421C7.35784 22.3421 7.43827 22.429 7.47848 22.429C7.51869 22.429 7.59912 22.429 7.59912 22.429C7.67955 22.4725 7.63933 22.5594 7.71976 22.6463C7.75997 22.7332 7.80019 22.8202 7.8404 22.8636C7.92082 22.9071 8.00125 22.8636 8.04146 22.9505C8.08168 23.0374 8.00125 23.1244 8.08168 23.2113C8.20232 23.472 8.08168 24.1239 8.20232 24.1673C8.32296 24.2108 8.64466 24.0804 8.7653 23.9935C8.88594 23.8631 9.04679 23.6893 9.16743 23.6458C9.32828 23.5589 9.6902 23.3851 9.85105 23.3416C10.0119 23.2982 10.0923 23.0374 10.2532 22.994C10.414 22.994 10.3738 22.8202 10.4542 22.7767C10.5749 22.7332 10.776 22.6029 10.8564 22.6898C10.8966 22.7332 10.9368 22.8202 11.0574 22.8636C11.1781 22.9071 11.2987 22.8636 11.3389 22.994C11.3791 23.2113 11.6606 23.0374 11.6606 23.0374C11.6606 23.0374 12.0226 22.7767 12.1834 22.6898C12.3443 22.6029 12.7464 22.3856 12.7464 22.3856C12.7464 22.3856 13.0681 22.2118 13.2289 22.1248C18.2958 19.474 22.3171 18.0399 26.0167 16.4755C31.7672 14.0853 41.6596 11.3041 43.5496 10.8261C43.7507 10.7826 44.193 10.6957 44.2332 10.6523C44.2734 10.6088 44.3941 10.6088 44.4343 10.3915C44.4745 10.2177 44.3538 9.91349 44.3538 9.82657C44.3538 9.73966 44.5549 9.34855 44.5951 9.17472C44.6353 9.0009 44.4745 9.0009 44.4745 9.0009C44.4745 9.0009 44.5147 8.78361 44.4343 8.65324C44.3941 8.47941 44.1528 8.34904 44.1126 8.21867C44.0724 8.0883 44.1126 7.74065 44.0724 7.61028C44.0321 7.47991 43.8713 7.39299 43.8713 7.39299C43.8713 7.39299 43.9115 7.34954 43.8713 7.21917C43.8311 7.13225 43.7507 7.13225 43.7507 7.13225C43.7507 7.13225 43.7909 6.91497 43.7909 6.82806C43.7909 6.74114 43.6702 6.69768 43.6702 6.69768C43.6702 6.69768 43.5496 6.61077 43.5496 6.52386C43.5496 6.43694 43.5094 6.35003 43.4692 6.30657C43.3887 6.26312 43.1877 6.26312 43.1475 6.21966C43.067 6.1762 42.9062 6.13275 42.8258 6.1762C42.7051 6.21966 42.6649 6.30657 42.3432 6.35003C42.0215 6.43694 41.9009 6.35003 41.74 6.39349C41.6194 6.43694 41.4585 6.52386 41.2977 6.56731C39.7696 7.00188 32.7323 9.21818 27.5448 11.3041C22.7192 13.2597 16.9688 16.0844 13.4702 18.0399C10.8162 19.5174 9.40871 20.3866 8.80551 20.7777C8.48381 20.995 8.1621 21.2123 8.12189 21.2992C8.04146 21.4295 7.96104 21.6903 7.75997 21.6903C7.55891 21.7337 7.55891 21.8641 7.51869 21.8641C7.43827 21.8641 7.35784 21.9945 7.27742 22.0379C7.07635 22.1248 7.11656 22.2118 7.11656 22.2987Z" fill="#E2001A"/>
<path d="M29.0335 18.8658C28.7922 18.692 28.8726 18.5616 29.1541 18.4312C30.8431 17.649 35.0654 16.0411 37.5184 15.172C39.6095 14.4767 45.3198 12.4342 46.9283 11.9562C47.3304 11.8258 47.4511 11.8258 47.6521 12.0431C48.0945 12.5211 48.4966 13.2164 48.8987 14.0421C49.2607 14.8243 49.5824 15.9107 49.703 16.606C49.7834 17.1275 49.5824 17.2144 49.3009 17.3448C47.5315 18.2139 43.1483 20.2564 41.3387 21.2125C39.5693 22.125 36.3121 23.8199 35.1861 24.4283C34.7035 24.689 34.784 24.7759 34.4623 24.3848C34.3818 24.2544 34.221 23.9937 34.1808 23.9068C34.1405 23.8199 33.5374 23.2549 33.4569 23.168C33.3765 23.0811 33.0548 22.6465 32.9744 22.6031C32.8939 22.5162 32.5722 22.0816 32.4918 22.0381C32.4114 21.9947 32.2505 21.9078 32.1701 21.8209C32.0897 21.7339 31.969 21.6036 31.9288 21.5601C31.8484 21.5167 31.7278 21.3428 31.7278 21.3428L31.5267 21.1255L31.3658 20.9083C31.3658 20.9083 31.205 20.691 31.0844 20.6475C30.9637 20.6041 30.8029 20.3868 30.7627 20.3433C30.7224 20.2564 30.3605 19.7784 30.1595 19.648C29.9986 19.5176 29.5563 19.2134 29.4356 19.1265C29.3552 19.0831 29.2346 18.9962 29.0335 18.8658Z" fill="#E2001A"/>
<path d="M35.5077 25.5573C35.3468 25.3835 35.5479 25.34 35.7489 25.2531C36.4728 24.9489 40.8962 23.4714 44.7567 22.3415C48.5769 21.2551 54.1263 19.9948 54.9708 19.821C55.3327 19.7341 55.4533 19.821 55.6142 20.1252C55.8153 20.4729 56.2576 21.6462 56.4185 22.6022C56.6195 23.819 56.4185 25.0358 56.338 25.34C56.2576 25.6008 55.9359 25.6008 55.2121 25.818C54.7697 25.9484 52.8395 26.4699 52.0754 26.7306C51.1908 27.0348 48.778 27.7736 47.8933 28.0778C46.8075 28.4689 45.3599 28.9904 45.3599 28.9904L37.7596 29.1208C37.7596 29.1208 37.639 28.5558 37.5987 28.5124C37.5183 28.4689 37.3977 28.2082 37.3575 28.1213C37.277 28.0343 37.1966 27.7736 37.1966 27.7736C37.1966 27.7736 37.1162 27.4694 37.076 27.4259C36.9956 27.3825 36.8347 26.9479 36.7945 26.9045C36.7141 26.861 36.5934 26.6437 36.513 26.5568C36.4326 26.4699 36.3924 26.3395 36.3119 26.2526C36.1913 26.1657 36.0707 25.9484 35.95 25.905C35.7489 25.905 35.6685 25.7311 35.5077 25.5573Z" fill="#E2001A"/>
<path d="M26.2998 9.69553C26.0987 9.69553 25.8976 9.69553 25.8574 9.65207C25.8172 9.60862 25.8574 9.56516 25.8172 9.47825C25.777 9.43479 25.6564 9.43479 25.6161 9.47825C25.5759 9.5217 25.5759 9.5217 25.4955 9.5217C25.4151 9.56516 25.1336 9.43479 25.013 9.47825C24.8923 9.5217 24.6912 9.5217 24.6108 9.47825C24.5304 9.43479 24.5304 9.21751 24.4098 9.17405C24.3293 9.13059 24.1283 9.00022 24.0478 8.86985C23.9674 8.73948 23.8066 8.56565 23.7663 8.47874C23.7261 8.39183 23.6859 8.26146 23.6457 8.17454C23.6055 8.08763 23.5653 7.95726 23.5251 7.87035C23.4849 7.82689 23.4044 7.78343 23.3642 7.69652C23.324 7.65306 23.2838 7.47923 23.2436 7.39232C23.2034 7.34886 23.1632 7.26195 23.1229 7.21849C23.0827 7.17504 23.0827 7.08812 23.0827 7.04467C23.0425 6.95775 22.9621 6.87084 22.9621 6.82738C22.9621 6.78393 22.9219 6.34936 22.9219 6.0017C22.9219 5.65405 22.9219 5.39331 22.9621 5.26294C23.0023 5.13257 23.0425 5.0022 23.0827 4.87183C23.1229 4.74146 23.2838 4.30689 23.324 4.0896C23.3642 3.87232 23.4849 3.48121 23.5251 3.35084C23.5653 3.22047 23.7261 2.82936 23.7663 2.74244C23.8468 2.61207 24.0881 2.22096 24.2087 2.09059C24.3293 1.96022 24.7717 1.43874 24.8923 1.35183C25.013 1.26491 25.2542 1.04763 25.3347 1.00417C25.3749 0.960716 25.6966 0.699975 25.8172 0.656518C25.8976 0.613061 26.0183 0.613061 26.0183 0.613061L26.1389 0.482691C26.1389 0.482691 26.1791 0.395777 26.2596 0.352321C26.2998 0.308864 26.4606 0.308864 26.4606 0.308864C26.4606 0.308864 26.6215 0.178493 26.7823 0.22195C26.8628 0.22195 26.903 0.0915798 26.9834 0.0915798C27.0638 0.0915798 27.3051 0.048123 27.3453 0.0915798C27.3855 0.135037 27.4257 0.178493 27.5464 0.22195C27.667 0.265407 27.7877 0.22195 27.8681 0.22195C27.9485 0.22195 28.0289 0.352321 28.0691 0.352321C28.1094 0.352321 28.7528 1.00417 28.8332 1.13454C28.8734 1.178 28.8734 1.30837 28.8734 1.30837C28.9136 1.35183 28.994 1.43874 29.0343 1.61257C29.0745 1.74294 29.1951 1.78639 29.1951 1.96022C29.1951 2.09059 29.3962 2.17751 29.4766 2.39479C29.4766 2.43825 29.5168 2.69899 29.5168 2.69899C29.5168 2.74244 29.5972 2.74244 29.5972 2.82936C29.6375 2.91627 29.6375 3.04664 29.6375 3.13356C29.6375 3.22047 29.7983 3.61158 29.7983 3.82886C29.7983 4.04615 29.7581 4.30689 29.6777 4.48072C29.6375 4.65454 29.6777 5.0022 29.6375 5.13257C29.5972 5.26294 29.5168 5.61059 29.4766 5.69751C29.4766 5.78442 29.1951 6.47973 29.1549 6.56664C29.1147 6.65356 28.9538 6.95775 28.9136 7.04467C28.8332 7.13158 28.3104 7.9138 28.23 8.04417C28.1496 8.13109 27.9083 8.34837 27.8681 8.39183C27.7877 8.47874 27.7474 8.60911 27.7072 8.73948C27.5866 8.91331 27.4659 8.78294 27.3855 8.91331C27.3051 9.08714 27.104 9.13059 27.0638 9.21751C27.0236 9.39133 26.903 9.5217 26.8628 9.56516C26.7019 9.60862 26.4606 9.69553 26.2998 9.69553Z" fill="#E2001A"/>
<path d="M11.0982 33.8139C11.0982 33.8139 8.88646 34.6396 8.00177 34.9872C7.1573 35.2914 6.2324 35.6825 5.6292 35.9433C4.86515 36.2909 3.53812 36.8559 3.21642 36.9862C2.73386 37.1601 2.49258 37.0732 2.37194 36.7255C2.2513 36.4213 1.9296 35.726 1.72853 34.9438C1.56768 34.1615 1.48726 33.5097 1.48726 33.2924C1.48726 33.0317 1.64811 32.6406 1.9296 32.4667C2.21109 32.2929 2.8545 31.8583 3.37727 31.5541C4.38259 30.9457 7.8007 28.9467 9.81136 27.8169C11.9829 26.6001 15.3608 24.8183 17.2106 23.8623C19.0201 22.9062 22.0361 21.3418 22.398 21.168C22.76 20.9941 23.1219 20.8203 23.3229 20.8203C23.4838 20.8203 23.4436 20.9072 23.4436 20.9941C23.4436 21.0811 23.3632 21.0811 23.3632 21.2549C23.3229 21.3853 23.3632 21.5591 23.3229 21.7329C23.2827 21.8633 23.1621 22.0371 23.1219 22.124C23.0817 22.2109 23.0817 22.5586 23.0012 22.689C22.9208 22.8193 22.5991 23.4712 22.5187 23.8188C22.4383 24.123 22.3176 24.6445 22.2372 24.7749C22.1568 24.9053 21.9557 25.3398 21.9155 25.5136C21.8753 25.644 21.7546 25.9917 21.7144 26.1655C21.6742 26.2959 21.3927 26.8608 21.3525 26.9477C21.3123 27.0346 21.1112 27.6865 21.071 27.8169C21.0308 27.9038 20.8297 28.208 20.8297 28.208L20.7493 28.6425C20.7493 28.6425 20.508 29.0336 20.508 29.1206C20.508 29.2075 20.307 29.8593 20.2265 29.9897C20.1461 30.1201 19.7038 31.163 19.6233 31.5541C19.5429 31.9018 19.3821 32.4667 19.3418 32.5971C19.3016 32.7275 19.0604 33.162 19.0201 33.2924C18.9799 33.4228 18.7789 34.1615 18.6984 34.3354C18.618 34.4657 18.4572 34.9003 18.4572 35.0307C18.4572 35.1611 18.3365 35.5087 18.2159 35.7695C18.0952 36.0302 17.9746 36.5082 17.8942 36.682C17.8138 36.8559 17.7333 36.9862 17.6931 37.0732C17.6529 37.1601 17.6529 37.4208 17.6127 37.5077C17.5725 37.5946 17.5323 37.725 17.5323 37.725C17.4116 37.7685 11.3395 40.5932 10.495 41.0277C9.6505 41.4623 3.45769 44.6346 3.09578 44.8085C2.69365 44.9823 2.21109 45.4169 1.84917 45.1561C1.36662 44.8085 0.88406 44.0697 0.602568 43.3744C0.36129 42.8095 0.0395857 41.8969 -0.000627391 41.245C-0.0408404 40.4193 0.280864 40.2455 1.40683 39.5502C1.96981 39.2025 6.39325 36.682 7.84092 35.8998C8.20283 35.4653 11.0982 33.8139 11.0982 33.8139Z" fill="#E2001A"/>
<path d="M69.2056 41.897C69.2861 41.5493 69.7284 41.4624 69.9697 41.4624C70.412 41.4624 70.6935 41.5928 70.975 41.7666C70.975 41.7666 71.2565 40.5498 71.2565 40.4629C70.774 40.1587 70.2512 40.1152 69.8893 40.1152C68.522 40.1152 67.8384 40.9844 67.7178 41.7231C67.4765 43.1572 69.0448 43.9829 68.8839 44.6347C68.7633 45.1128 68.321 45.1562 68.0797 45.1562C67.6373 45.1562 67.2352 45.0258 66.9135 44.8086L66.5918 46.2426C67.0341 46.4165 67.6373 46.5468 68.1199 46.5468C69.6882 46.5468 70.211 45.7646 70.3718 44.9389C70.6131 43.5049 69.0448 42.6792 69.2056 41.897Z" fill="#333333"/>
<path d="M56.5784 40.2461H52.3158L51.9941 41.5498H53.3614L52.1952 46.4604H53.7233L54.8895 41.5498H56.2567L56.5784 40.2461Z" fill="#333333"/>
<path d="M65.3448 43.7231C66.1089 43.5928 66.7121 42.854 66.8729 42.1152C67.1544 40.8984 66.8327 40.2031 65.5459 40.2031H62.9723L61.4844 46.4174H62.932L64.0982 41.5068H64.8623C65.0633 41.5068 65.5459 41.5068 65.385 42.1587C65.2644 42.6367 64.9025 42.9844 64.2591 42.9409H64.2189H63.7363L64.2591 46.374H65.9078C65.9078 46.4609 65.385 43.8535 65.3448 43.7231Z" fill="#333333"/>
<path d="M48.8574 46.5468C49.1389 46.5468 49.8627 46.5034 50.3051 46.4165L50.667 44.9824C50.2246 45.1128 49.7823 45.1997 49.1791 45.1997C48.2542 45.1997 48.0129 44.2871 48.2542 43.331C48.4553 42.5054 49.1389 41.4624 50.3453 41.4624C50.7474 41.4624 51.1093 41.5928 51.431 41.7231L51.7527 40.3325C51.3908 40.2021 50.8278 40.1152 50.3855 40.1152C48.6563 40.1152 47.2087 41.2886 46.6859 43.331C46.2033 45.417 47.1282 46.5468 48.8574 46.5468Z" fill="#333333"/>
<path d="M40.1733 43.3315C40.7764 40.6807 39.4896 40.2461 38.7658 40.2461H36.1519L34.6641 46.4604H36.9562C38.6452 46.4604 39.7309 45.1567 40.1733 43.3315ZM38.6452 43.3315C38.4441 44.2441 37.8409 45.1133 36.9964 45.1133H36.4736L37.3181 41.5498H37.9615C38.7256 41.5498 38.9266 42.1582 38.6452 43.3315Z" fill="#333333"/>
<path d="M44.1533 40.1152C42.4644 40.1152 41.0569 41.2886 40.5744 43.331C40.0918 45.417 40.9765 46.5468 42.6654 46.5468C44.2338 46.5468 45.6814 45.5039 46.2042 43.5049C46.7672 41.332 45.8423 40.1152 44.1533 40.1152ZM44.837 43.3745C44.5555 44.374 43.7914 45.1997 42.9469 45.1562C42.022 45.1128 41.821 44.2002 42.1025 43.2441C42.384 42.2881 43.0676 41.4189 43.9925 41.4624C44.8772 41.5493 45.0782 42.4184 44.837 43.3745Z" fill="#333333"/>
<path d="M59.6358 40.1152C57.9468 40.1152 56.5393 41.2886 56.0568 43.331C55.5742 45.417 56.4589 46.5468 58.1479 46.5468C59.7162 46.5468 61.1638 45.5039 61.6866 43.5049C62.2094 41.332 61.2845 40.1152 59.6358 40.1152ZM60.3194 43.3745C60.0379 44.374 59.2738 45.1997 58.4294 45.1562C57.5045 45.1128 57.3034 44.2002 57.5849 43.2441C57.8664 42.2881 58.55 41.4189 59.4749 41.4624C60.3194 41.5493 60.5607 42.4184 60.3194 43.3745Z" fill="#333333"/>
<path d="M81.8336 40.2031L80.3457 46.4609H81.8738L83.3617 40.2031H81.8336Z" fill="#333333"/>
<path d="M109.942 40.2461H105.679L105.357 41.5498H106.765L105.599 46.4604H107.127L108.253 41.5498H109.66L109.942 40.2461Z" fill="#333333"/>
<path d="M88.1468 40.2461H83.8842L83.5625 41.5498H84.97L83.8038 46.4604H85.3319L86.4578 41.5498H87.8653L88.1468 40.2461Z" fill="#333333"/>
<path d="M101.78 40.2461L100.935 43.8096C100.734 44.7221 100.815 45.2436 101.498 45.2436C102.222 45.2436 102.544 44.7221 102.745 43.8096L103.589 40.2461H105.158L104.152 44.4614C103.79 45.9824 102.624 46.5908 101.176 46.5908C99.7288 46.5908 98.8441 45.9824 99.206 44.4614L100.211 40.2461H101.78Z" fill="#333333"/>
<path d="M81.2698 40.2031L78.7766 46.4609H77.1279L77.3691 42.5932L76.0019 46.4609H74.4336L74.5944 40.2031H75.8813L75.6802 44.5923L77.1681 40.2031H78.656L78.3343 44.5923L80.0232 40.2031H81.2698Z" fill="#333333"/>
<path d="M88.7086 40.2031H90.1563L89.5933 42.5498H91.4431L92.0061 40.2031H93.4135L91.9658 46.4609H90.5182L91.1214 43.8535H89.2716L88.6684 46.4609H87.2207L88.7086 40.2031Z" fill="#333333"/>
<path d="M96.833 40.1152C95.1441 40.1152 93.7366 41.2886 93.2541 43.331C92.7715 45.417 93.6562 46.5468 95.3451 46.5468C96.9135 46.5468 98.3611 45.5039 98.8839 43.5049C99.4469 41.332 98.522 40.1152 96.833 40.1152ZM97.5166 43.3745C97.2352 44.374 96.4711 45.1997 95.6266 45.1562C94.7017 45.1128 94.5007 44.2002 94.7822 43.2441C95.0636 42.2881 95.7473 41.4189 96.6722 41.4624C97.5166 41.5493 97.7579 42.4184 97.5166 43.3745Z" fill="#333333"/>
<path d="M133.306 43.3315C133.909 40.6807 132.622 40.2461 131.899 40.2461H129.285L127.797 46.4604H130.089C131.738 46.4604 132.864 45.1567 133.306 43.3315ZM131.778 43.3315C131.577 44.2441 130.974 45.1133 130.129 45.1133H129.606L130.451 41.5498H131.094C131.858 41.5498 132.059 42.1582 131.778 43.3315Z" fill="#333333"/>
<path d="M145.047 41.897C145.128 41.5493 145.57 41.4624 145.811 41.4624C146.254 41.4624 146.535 41.5928 146.817 41.7666C146.817 41.7666 147.098 40.5498 147.098 40.4629C146.616 40.1587 146.093 40.1152 145.731 40.1152C144.364 40.1152 143.68 40.9844 143.56 41.7231C143.318 43.1572 144.887 43.9829 144.726 44.6347C144.605 45.1128 144.163 45.1562 143.921 45.1562C143.479 45.1562 143.077 45.0258 142.755 44.8086L142.434 46.2426C142.876 46.4165 143.479 46.5468 143.962 46.5468C145.53 46.5468 146.053 45.7646 146.214 44.9389C146.455 43.5049 144.887 42.6792 145.047 41.897Z" fill="#333333"/>
<path d="M141.55 43.7231C142.314 43.5928 142.917 42.854 143.078 42.1152C143.359 40.8984 143.038 40.2031 141.751 40.2031H139.177L137.689 46.4174H139.137L140.303 41.5068H141.067C141.268 41.5068 141.751 41.5068 141.59 42.1587C141.469 42.6367 141.108 42.9844 140.464 42.9409H140.424H139.941L140.464 46.374H142.113C142.113 46.4609 141.59 43.8535 141.55 43.7231Z" fill="#333333"/>
<path d="M126.63 43.7231C127.394 43.5928 127.997 42.854 128.158 42.1152C128.44 40.8984 128.118 40.2031 126.831 40.2031H124.257L122.77 46.4174H124.217L125.383 41.5068H126.147C126.349 41.5068 126.831 41.5068 126.67 42.1587C126.55 42.6367 126.188 42.9844 125.544 42.9409H125.504H125.021L125.544 46.374H127.193C127.193 46.4609 126.67 43.8535 126.63 43.7231Z" fill="#333333"/>
<path d="M136.964 46.4604L137.286 45.1133H134.873L135.115 43.9834H137.085L137.407 42.6362H135.436L135.718 41.5498H138.09L138.412 40.2461H134.511L133.023 46.4604H136.964Z" fill="#333333"/>
<path d="M113.562 40.2031H116.457C116.9 40.2031 117.463 40.5942 117.221 41.7241C117.061 42.4629 116.658 43.0278 115.975 43.2451C116.578 43.332 116.86 43.897 116.659 44.7661C116.337 46.1132 115.573 46.4174 114.487 46.4174H112.074L113.562 40.2031ZM113.763 45.2441H114.286C114.728 45.2441 115.171 45.2441 115.331 44.5488C115.492 43.897 115.05 43.897 114.688 43.897H114.085L113.763 45.2441ZM114.366 42.6802H114.648C115.05 42.6802 115.573 42.7236 115.734 41.9414C115.854 41.4199 115.372 41.4199 115.05 41.4199H114.608L114.366 42.6802Z" fill="#333333"/>
<path d="M120.88 40.1152C119.191 40.1152 117.783 41.2886 117.301 43.331C116.818 45.417 117.703 46.5468 119.392 46.5468C120.96 46.5468 122.408 45.5039 122.931 43.5049C123.494 41.332 122.569 40.1152 120.88 40.1152ZM121.564 43.3745C121.282 44.374 120.518 45.1997 119.674 45.1562C118.749 45.1128 118.548 44.2002 118.829 43.2441C119.111 42.2881 119.794 41.4189 120.719 41.4624C121.604 41.5493 121.805 42.4184 121.564 43.3745Z" fill="#333333"/>
</g>
<defs>
<clipPath id="clip0_953_2624">
<rect width="151" height="48.8889" fill="white" transform="translate(0 0.222656)"/>
</clipPath>
</defs>
</svg>
