<?xml version="1.0" encoding="utf-8"?>
<!-- Generator: Adobe Illustrator 21.0.0, SVG Export Plug-In . SVG Version: 6.00 Build 0)  -->
<svg version="1.1" id="Layer_1" xmlns="http://www.w3.org/2000/svg" xmlns:xlink="http://www.w3.org/1999/xlink" x="0px" y="0px"
	 viewBox="0 0 375.5 112.5" style="enable-background:new 0 0 375.5 112.5;" xml:space="preserve">
<style type="text/css">
	.st0{fill:#FFFFFF;}
	.st1{fill:none;stroke:#E2001A;stroke-width:0.609;}
	.st2{fill:#E2001A;}
</style>
<g>
	<polygon class="st0" points="231.8,70 229.5,79.3 229.4,79.3 227.2,70 222.7,70 219.1,84.3 222.4,84.3 224.7,75.1 224.8,75.1 
		227.1,84.3 231.5,84.3 235.2,70 	"/>
	<path class="st0" d="M212.7,70c-3.1,4.8-6.2,9.7-9.4,14.3h4.1l2.5-4.1h4.4l0.2,4.1h4c-0.5-4.8-1.1-9.6-1.3-14.3H212.7z M211.6,77.2
		l2.5-4.1l0,0l0.2,4.1H211.6z"/>
	<path class="st0" d="M239.9,73.8c0.2-0.8,1.3-1,1.9-1c1.1,0,1.8,0.3,2.5,0.7c0,0,0.7-2.8,0.7-3c-1.2-0.7-2.5-0.8-3.4-0.8
		c-3.4,0-5.1,2-5.4,3.7c-0.6,3.3,3.3,5.2,2.9,6.7c-0.3,1.1-1.4,1.2-2,1.2c-1.1,0-2.1-0.3-3-0.8l-0.8,3.3c1.1,0.4,2.6,0.7,3.8,0.7
		c3.9,0,5.2-1.8,5.6-3.7C243.4,77.5,239.4,75.7,239.9,73.8"/>
	<path class="st0" d="M201.5,73.8c0.2-0.8,1.3-1,1.9-1c1.1,0,1.8,0.3,2.5,0.7c0,0,0.9-2.7,0.9-2.9c-1.3-0.8-2.7-0.9-3.6-0.9
		c-3.4,0-5.1,2-5.4,3.7c-0.6,3.3,3.3,5.2,2.9,6.7c-0.3,1.1-1.4,1.2-2,1.2c-1.1,0-2.1-0.3-2.9-0.8l-0.8,3.3c1.1,0.4,2.6,0.7,3.8,0.7
		c3.9,0,5.2-1.8,5.6-3.7C205.1,77.5,201.1,75.7,201.5,73.8"/>
	<polygon class="st0" points="299.3,79.3 299.3,79.3 297.1,70 292.6,70 289,84.3 292.3,84.3 294.6,75.1 294.6,75.1 297,84.3 
		301.4,84.3 305,70 301.7,70 	"/>
	<polygon class="st0" points="257.2,73 262.7,73 263.5,69.9 254.2,69.9 250.6,84.3 254.4,84.3 255.8,78.6 260.4,78.6 261.2,75.5 
		256.6,75.5 	"/>
	<polygon class="st0" points="317,70 306.4,70 305.6,73 309,73 306.2,84.3 309.9,84.3 312.8,73 316.2,73 	"/>
	<polygon class="st0" points="318.4,70 314.7,84.3 318.5,84.3 322.1,70 	"/>
	<polygon class="st0" points="330.7,78.6 331.5,75.5 326.7,75.5 327.4,73 333.4,73 334.1,70 324.4,70 320.7,84.3 330.5,84.3 
		331.3,81.2 325.3,81.2 326,78.6 	"/>
	<polygon class="st0" points="354.9,78.6 355.7,75.5 350.8,75.5 351.5,73 357.4,73 358.2,70 348.5,70 344.8,84.3 354.6,84.3 
		355.3,81.2 349.4,81.2 350,78.6 	"/>
	<path class="st0" d="M284.1,69.7c-4.3,0-7.9,2.7-9.1,7.4c-1.2,4.8,1,7.4,5.3,7.4c4,0,7.7-2.4,9-7C290.7,72.5,288.3,69.7,284.1,69.7
		 M285.6,77.1c-0.6,2.3-2.4,4.3-4.5,4.3c-2.3,0-2.9-2.1-2.3-4.3c0.6-2.2,2.2-4.3,4.5-4.3C285.5,72.9,286.1,74.8,285.6,77.1"/>
	<path class="st0" d="M362.7,73.8c0.2-0.7,1.3-1,1.9-1c1.1,0,1.8,0.3,2.5,0.7c0,0,0.7-2.8,0.7-3c-1.2-0.7-2.5-0.8-3.4-0.8
		c-3.4,0-5.1,2-5.4,3.7c-0.6,3.3,3.3,5.2,2.9,6.7c-0.3,1.1-1.4,1.2-2,1.2c-1.1,0-2.1-0.3-2.9-0.8l-0.8,3.3c1.1,0.4,2.6,0.7,3.8,0.7
		c3.9,0,5.2-1.8,5.6-3.7C366.2,77.5,362.2,75.6,362.7,73.8"/>
	<path class="st0" d="M271,78c1.9-0.3,3.4-2.1,3.8-3.7c0.7-2.8-0.1-4.4-3.3-4.4h-6.4l-3.7,14.3h3.6l2.9-11.3h1.9
		c0.5,0,1.7,0,1.3,1.5c-0.3,1.1-1.2,1.9-2.8,1.9h-0.1H267l1.3,7.9h4.1C272.3,84.3,271,78.3,271,78"/>
	<path class="st0" d="M341.9,78c1.9-0.4,3.4-2.1,3.8-3.7c0.7-2.8-0.1-4.4-3.3-4.4H336l-3.7,14.3h3.6l2.9-11.3h1.9
		c0.5,0,1.7,0,1.3,1.5c-0.3,1.1-1.2,1.9-2.8,1.9h-0.1h-1.2l1.3,7.9h4.1C343.3,84.3,342,78.3,341.9,78"/>
	<polygon class="st0" points="143.7,84.3 144.5,81.2 138.5,81.2 139.2,78.6 144.1,78.6 144.9,75.6 140,75.6 140.6,73 146.6,73 
		147.4,70 137.6,70 134,84.3 	"/>
	<polygon class="st0" points="118.4,84.3 119.2,81.2 113.3,81.2 113.9,78.6 118.7,78.6 119.5,75.5 114.7,75.5 115.3,73 121.3,73 
		122.1,70 112.4,70 108.7,84.3 	"/>
	<path class="st0" d="M151.9,84.5c0.7,0,2.6-0.2,3.6-0.4l0.9-3.3c-1.1,0.3-2.3,0.6-3.8,0.6c-2.3,0-2.9-2.1-2.3-4.3
		c0.5-1.9,2.2-4.3,5.2-4.3c1,0,1.9,0.3,2.7,0.6l0.8-3.2c-0.9-0.3-2.3-0.5-3.4-0.5c-4.3,0-7.9,2.7-9.2,7.4
		C145.3,81.9,147.6,84.5,151.9,84.5"/>
	<polygon class="st0" points="161.2,84.3 164.9,70 161.1,70 157.4,84.3 	"/>
	<polygon class="st0" points="97.6,74 97.7,74 97.5,84.3 100.7,84.3 105.8,74 105.8,74 103.2,84.3 106.4,84.3 110.1,70 105.1,70 
		100.6,79 100.6,79 100.8,70 95.5,70 91.8,84.3 95,84.3 	"/>
	<polygon class="st0" points="166.8,84.3 169.1,75.1 169.1,75.1 171.5,84.3 175.9,84.3 179.5,70 176.2,70 173.8,79.3 173.8,79.3 
		171.6,70 167.1,70 163.4,84.3 	"/>
	<path class="st0" d="M134.4,77.1c1.5-6.1-1.7-7.1-3.5-7.1h-6.8l-3.7,14.3h6C130.6,84.3,133.3,81.3,134.4,77.1 M130.6,77.1
		c-0.5,2.1-2,4.1-4.1,4.1h-1.6L127,73h1.9C130.8,73,131.3,74.4,130.6,77.1"/>
	<path class="st0" d="M184.2,73.8c0.2-0.8,1.3-1,1.9-1c1.1,0,1.8,0.3,2.5,0.7c0,0,0.7-2.8,0.7-3c-1.2-0.7-2.5-0.8-3.4-0.8
		c-3.4,0-5.1,2-5.4,3.7c-0.6,3.3,3.3,5.2,2.9,6.7c-0.3,1.1-1.4,1.2-2,1.2c-1.1,0-2.1-0.3-2.9-0.8l-0.8,3.3c1.1,0.4,2.6,0.7,3.8,0.7
		c3.9,0,5.2-1.8,5.6-3.7C187.7,77.5,183.7,75.7,184.2,73.8"/>
	<line class="st1" x1="90.1" y1="88.2" x2="366.1" y2="88.2"/>
	<path class="st2" d="M38.5,92.2c1-0.6,3.4-1.9,3.7-2c0.5-0.3,0.7-0.2,0.7-0.1c0.1,0.5,0,1.7,0.7,1.9c0.2,0.1,0.7-0.2,0.8,0
		c0.2,0.4,0.3,0.3,0.3,0.4c0.1,0.1,0.4,0.1,0.5,0.1c0.2,0.2,0,0.4,0.1,0.5c0.2,0.2,0.5-0.1,0.7-0.1c0.3,0.1,0.4,0.4,0.3,0.6
		c-0.1,0.4,0.1,0.6,0.7,0.1c0.3-0.3,0.3-0.1,0.6-0.3c0.2-0.1,0.4-0.1,0.5,0s0.3,0.3,0.5,0.4c0.2,0.1,0.5,0,0.7,0.1s0.2,0.4,0.4,0.5
		c0.2,0,0.4-0.4,0.5-0.2c0.4,0.3-0.3,0.9,0.2,1c0.2,0.1,0.3-0.1,0.5-0.2c0.2,0,0.3-0.3,0.5-0.3s0.3,0.2,0.5,0.1
		c0.2-0.1,0.3-0.2,0.5-0.3s0.5-0.1,0.6-0.2c0.2-0.1,0-0.5,0.5-0.4s-0.1,0.6,0.1,0.7c0.2,0.1,0.6,0,0.7,0c0.3-0.1,0.5-0.4,0.6-0.7
		s0.5-1.2,0.7-1.5s0.6-1.2,0.8-1.6c0.2-0.3,1.1-1.8,1.2-2c0.1-0.2,0.4-0.5,0.5-0.7s0.3-0.7,0.5-1.2c0.2-0.4,0.8-1.3,0.9-1.5
		c0.1-0.2,0.5-1.3,0.7-1.6s0.8-1.1,0.9-1.5c0.1-0.4,0.5-1.1,0.5-1.1l0.4-0.7c0,0,0.1-0.3,0.3-0.7s0.8-1.3,1-1.6s0.6-1,0.6-1l0.4-0.8
		l0.3-0.6c0,0,0.2-0.7,0.3-0.9s0.5-0.7,0.6-0.9c0.1-0.3,0.4-1.4,0.6-1.7c0.2-0.3,1-1.8,1.1-2.1s0.9-1.8,1-2.1s0.1-0.7,0.2-0.9
		c0.1-0.2,0.5-0.7,0.5-0.8c0.1-0.1,0.6-1.5,0.7-1.7c0.1-0.2,0.1-0.6,0.4-0.6c0.2,0,0.4,0.2,0.5,0.5c0.2,0.2,0.5,0.2,0.7,0.4
		s0.8,0.9,0.9,1c0,0.1,0.4,0.1,0.5,0.3c0.1,0.1,0.1,0.4,0.3,0.4c0.1,0.1,0.7,0.4,0.8,0.6c0.1,0.2,0.3,0.5,0.4,0.6
		c0.1,0.1,0.8,0.5,0.9,0.7c0.1,0.2,1,1.3,1.1,1.5s0.2,0.5,0.3,0.7c0.1,0.1,0.4,0.3,0.5,0.5c0,0.1,0.1,0.6,0.1,0.8
		c0.1,0.1,0.5,0.3,0.5,0.4c0.1,0.1,0.2,0.7,0.3,0.8s0.3,0.2,0.3,0.3c0.1,0.1,0.1,0.7,0.2,0.8c0.1,0.1,0.4,0.6,0.4,0.8
		c0.1,0.2,0.4,0.6,0.4,0.7c0.1,0.1,0.1,0.7,0.1,0.9c0.1,0.2,0.3,0.6,0.3,0.7c0,0.1,0.1,0.4,0.1,0.4l0.2,0.5c0,0,0.3,0.5,0.3,0.7
		s0.1,0.4,0.1,0.6c0,0.1,0.3,0.5,0.3,0.6s0.3,0.8,0.3,0.8s-0.1,0.6,0,0.7c0.1,0.1,0.3,0.5,0.3,0.7c0,0.1-0.1,0.5-0.1,0.5l0.1,0.2
		c0,0-0.1,0.3,0,0.4c0.1,0.1-0.1,0.4,0,0.4c0.1,0.1,0.3,0.7,0.3,0.7c-0.2,0.2-11.9,5.6-16.9,8c-7.2,3.4-22.3,10.9-23.9,11.8
		c-1.6,0.9-2.6,1.5-3,1.3c-0.9-0.5-2.3-1.7-3.3-4.5c-0.8-2.3-0.8-4.2-0.8-5.2c0.1-0.7,0-1.3,1.1-1.9C35.4,94,37.5,92.8,38.5,92.2"/>
	<path class="st2" d="M17.7,50.8c0.1,0.1,0.3,0.1,0.5,0.1c0.1,0,0.3,0.2,0.4,0.2c0.1,0,0.3,0,0.3,0c0.2,0.1,0.1,0.3,0.3,0.5
		c0.1,0.2,0.2,0.4,0.3,0.5c0.2,0.1,0.4,0,0.5,0.2s-0.1,0.4,0.1,0.6c0.3,0.6,0,2.1,0.3,2.2c0.3,0.1,1.1-0.2,1.4-0.4
		c0.3-0.3,0.7-0.7,1-0.8c0.4-0.2,1.3-0.6,1.7-0.7c0.4-0.1,0.6-0.7,1-0.8c0.4,0,0.3-0.4,0.5-0.5c0.3-0.1,0.8-0.4,1-0.2
		c0.1,0.1,0.2,0.3,0.5,0.4c0.3,0.1,0.6,0,0.7,0.3c0.1,0.5,0.8,0.1,0.8,0.1s0.9-0.6,1.3-0.8c0.4-0.2,1.4-0.7,1.4-0.7s0.8-0.4,1.2-0.6
		c12.6-6.1,22.6-9.4,31.8-13c14.3-5.5,38.9-11.9,43.6-13c0.5-0.1,1.6-0.3,1.7-0.4c0.1-0.1,0.4-0.1,0.5-0.6c0.1-0.4-0.2-1.1-0.2-1.3
		s0.5-1.1,0.6-1.5s-0.3-0.4-0.3-0.4s0.1-0.5-0.1-0.8c-0.1-0.4-0.7-0.7-0.8-1s0-1.1-0.1-1.4c-0.1-0.3-0.5-0.5-0.5-0.5s0.1-0.1,0-0.4
		c-0.1-0.2-0.3-0.2-0.3-0.2s0.1-0.5,0.1-0.7s-0.3-0.3-0.3-0.3s-0.3-0.2-0.3-0.4s-0.1-0.4-0.2-0.5c-0.2-0.1-0.7-0.1-0.8-0.2
		c-0.2-0.1-0.6-0.2-0.8-0.1c-0.3,0.1-0.4,0.3-1.2,0.4c-0.8,0.2-1.1,0-1.5,0.1c-0.3,0.1-0.7,0.3-1.1,0.4c-3.8,1-21.3,6.1-34.2,10.9
		c-12,4.5-26.3,11-35,15.5c-6.6,3.4-10.1,5.4-11.6,6.3c-0.8,0.5-1.6,1-1.7,1.2c-0.2,0.3-0.4,0.9-0.9,0.9c-0.5,0.1-0.5,0.4-0.6,0.4
		c-0.2,0-0.4,0.3-0.6,0.4C17.6,50.4,17.7,50.6,17.7,50.8"/>
	<path class="st2" d="M72.2,42.9c-0.6-0.4-0.4-0.7,0.3-1c4.2-1.8,14.7-5.5,20.8-7.5c5.2-1.6,19.4-6.3,23.4-7.4
		c1-0.3,1.3-0.3,1.8,0.2c1.1,1.1,2.1,2.7,3.1,4.6c0.9,1.8,1.7,4.3,2,5.9c0.2,1.2-0.3,1.4-1,1.7c-4.4,2-15.3,6.7-19.8,8.9
		c-4.4,2.1-12.5,6-15.3,7.4c-1.2,0.6-1,0.8-1.8-0.1c-0.2-0.3-0.6-0.9-0.7-1.1c-0.1-0.2-1.6-1.5-1.8-1.7s-1-1.2-1.2-1.3
		c-0.2-0.2-1-1.2-1.2-1.3s-0.6-0.3-0.8-0.5s-0.5-0.5-0.6-0.6c-0.2-0.1-0.5-0.5-0.5-0.5l-0.5-0.5L78,47.6c0,0-0.4-0.5-0.7-0.6
		s-0.7-0.6-0.8-0.7c-0.1-0.2-1-1.3-1.5-1.6c-0.4-0.3-1.5-1-1.8-1.2C73,43.4,72.7,43.2,72.2,42.9"/>
	<g>
		<path class="st2" d="M88.3,58.3c-0.4-0.4,0.1-0.5,0.6-0.7c1.8-0.7,12.8-4.1,22.4-6.7c9.5-2.5,23.3-5.4,25.4-5.8
			c0.9-0.2,1.2,0,1.6,0.7c0.5,0.8,1.6,3.5,2,5.7c0.5,2.8,0,5.6-0.2,6.3c-0.2,0.6-1,0.6-2.8,1.1c-1.1,0.3-5.9,1.5-7.8,2.1
			c-2.2,0.7-8.2,2.4-10.4,3.1c-2.7,0.9-6.3,2.1-6.3,2.1l-18.9,0.3c0,0-0.3-1.3-0.4-1.4c-0.2-0.1-0.5-0.7-0.6-0.9
			c-0.2-0.2-0.4-0.8-0.4-0.8s-0.2-0.7-0.3-0.8c-0.2-0.1-0.6-1.1-0.7-1.2c-0.2-0.1-0.5-0.6-0.7-0.8s-0.3-0.5-0.5-0.7
			c-0.3-0.2-0.6-0.7-0.9-0.8C88.9,59.1,88.7,58.7,88.3,58.3"/>
		<path class="st2" d="M65.4,21.8c-0.5,0-1,0-1.1-0.1s0-0.2-0.1-0.4c-0.1-0.1-0.4-0.1-0.5,0s-0.1,0.1-0.3,0.1
			c-0.2,0.1-0.9-0.2-1.2-0.1c-0.3,0.1-0.8,0.1-1,0s-0.2-0.6-0.5-0.7c-0.2-0.1-0.7-0.4-0.9-0.7s-0.6-0.7-0.7-0.9
			c-0.1-0.2-0.2-0.5-0.3-0.7s-0.2-0.5-0.3-0.7c-0.1-0.1-0.3-0.2-0.4-0.4c-0.1-0.1-0.2-0.5-0.3-0.7c-0.1-0.1-0.2-0.3-0.3-0.4
			c-0.1-0.1-0.1-0.3-0.1-0.4c-0.1-0.2-0.3-0.4-0.3-0.5S57,14.1,57,13.3c0-0.8,0-1.4,0.1-1.7s0.2-0.6,0.3-0.9
			c0.1-0.3,0.5-1.3,0.6-1.8s0.4-1.4,0.5-1.7S59,6,59.1,5.8c0.2-0.3,0.8-1.2,1.1-1.5s1.4-1.5,1.7-1.7s0.9-0.7,1.1-0.8
			c0.1-0.1,0.9-0.7,1.2-0.8c0.2-0.1,0.5-0.1,0.5-0.1L65,0.6c0,0,0.1-0.2,0.3-0.3c0.1-0.1,0.5-0.1,0.5-0.1s0.4-0.3,0.8-0.2
			c0.2,0,0.3-0.3,0.5-0.3s0.8-0.1,0.9,0c0.1,0.1,0.2,0.2,0.5,0.3s0.6,0,0.8,0s0.4,0.3,0.5,0.3s1.7,1.5,1.9,1.8
			c0.1,0.1,0.1,0.4,0.1,0.4c0.1,0.1,0.3,0.3,0.4,0.7c0.1,0.3,0.4,0.4,0.4,0.8c0,0.3,0.5,0.5,0.7,1c0,0.1,0.1,0.7,0.1,0.7
			c0,0.1,0.2,0.1,0.2,0.3c0.1,0.2,0.1,0.5,0.1,0.7s0.4,1.1,0.4,1.6S74,9.4,73.8,9.8c-0.1,0.4,0,1.2-0.1,1.5s-0.3,1.1-0.4,1.3
			c0,0.2-0.7,1.8-0.8,2s-0.5,0.9-0.6,1.1c-0.2,0.2-1.5,2-1.7,2.3c-0.2,0.2-0.8,0.7-0.9,0.8c-0.2,0.2-0.3,0.5-0.4,0.8
			c-0.3,0.4-0.6,0.1-0.8,0.4c-0.2,0.4-0.7,0.5-0.8,0.7c-0.1,0.4-0.4,0.7-0.5,0.8C66.4,21.6,65.8,21.8,65.4,21.8"/>
		<path class="st2" d="M27.6,77.3c0,0-5.5,1.9-7.7,2.7c-2.1,0.7-4.4,1.6-5.9,2.2c-1.9,0.8-5.2,2.1-6,2.4C6.8,85,6.2,84.8,5.9,84
			c-0.3-0.7-1.1-2.3-1.6-4.1c-0.4-1.8-0.6-3.3-0.6-3.8c0-0.6,0.4-1.5,1.1-1.9c0.7-0.4,2.3-1.4,3.6-2.1c2.5-1.4,11-6,16-8.6
			c5.4-2.8,13.8-6.9,18.4-9.1c4.5-2.2,12-5.8,12.9-6.2s1.8-0.8,2.3-0.8c0.4,0,0.3,0.2,0.3,0.4s-0.2,0.2-0.2,0.6
			c-0.1,0.3,0,0.7-0.1,1.1c-0.1,0.3-0.4,0.7-0.5,0.9s-0.1,1-0.3,1.3s-1,1.8-1.2,2.6c-0.2,0.7-0.5,1.9-0.7,2.2s-0.7,1.3-0.8,1.7
			c-0.1,0.3-0.4,1.1-0.5,1.5c-0.1,0.3-0.8,1.6-0.9,1.8c-0.1,0.2-0.6,1.7-0.7,2c-0.1,0.2-0.6,0.9-0.6,0.9l-0.2,1c0,0-0.6,0.9-0.6,1.1
			c0,0.2-0.5,1.7-0.7,2s-1.3,2.7-1.5,3.6c-0.2,0.8-0.6,2.1-0.7,2.4c-0.1,0.3-0.7,1.3-0.8,1.6s-0.6,2-0.8,2.4
			c-0.2,0.3-0.6,1.3-0.6,1.6s-0.3,1.1-0.6,1.7c-0.3,0.6-0.6,1.7-0.8,2.1c-0.2,0.4-0.4,0.7-0.5,0.9s-0.1,0.8-0.2,1
			c-0.1,0.2-0.2,0.5-0.2,0.5c-0.3,0.1-15.4,6.6-17.5,7.6s-17.5,8.3-18.4,8.7c-1,0.4-2.2,1.4-3.1,0.8c-1.2-0.8-2.4-2.5-3.1-4.1
			C0.9,98,0.1,95.9,0,94.4c-0.1-1.9,0.7-2.3,3.5-3.9c1.4-0.8,12.4-6.6,16-8.4C20.4,81.1,27.6,77.3,27.6,77.3"/>
	</g>
	<path class="st0" d="M172.1,95.9c0.2-0.8,1.3-1,1.9-1c1.1,0,1.8,0.3,2.5,0.7c0,0,0.7-2.8,0.7-3c-1.2-0.7-2.5-0.8-3.4-0.8
		c-3.4,0-5.1,2-5.4,3.7c-0.6,3.3,3.3,5.2,2.9,6.7c-0.3,1.1-1.4,1.2-2,1.2c-1.1,0-2.1-0.3-2.9-0.8l-0.8,3.3c1.1,0.4,2.6,0.7,3.8,0.7
		c3.9,0,5.2-1.8,5.6-3.7C175.6,99.6,171.7,97.7,172.1,95.9"/>
	<polygon class="st0" points="140.7,92.1 130.1,92.1 129.3,95.1 132.7,95.1 129.8,106.4 133.6,106.4 136.5,95.1 139.9,95.1 	"/>
	<path class="st0" d="M162.5,100.1c1.9-0.3,3.4-2,3.8-3.7c0.7-2.8-0.1-4.4-3.3-4.4h-6.4l-3.7,14.3h3.6l2.9-11.3h1.9
		c0.5,0,1.7,0,1.3,1.5c-0.3,1.1-1.2,1.9-2.8,1.8h-0.1h-1.2l1.3,7.9h4.1C163.9,106.4,162.6,100.4,162.5,100.1"/>
	<path class="st0" d="M121.5,106.6c0.7,0,2.5-0.1,3.6-0.3l0.9-3.3c-1.1,0.3-2.2,0.5-3.7,0.5c-2.3,0-2.9-2.1-2.3-4.3
		c0.5-1.9,2.2-4.3,5.2-4.3c1,0,1.9,0.3,2.7,0.6l0.8-3.2c-0.9-0.3-2.3-0.5-3.4-0.5c-4.3,0-7.9,2.7-9.2,7.4
		C114.9,104,117.2,106.6,121.5,106.6"/>
	<path class="st0" d="M99.9,99.2c1.5-6.1-1.7-7.1-3.5-7.1h-6.5l-3.7,14.3h5.7C96.1,106.4,98.8,103.4,99.9,99.2 M96.1,99.2
		c-0.5,2.1-2,4.1-4.1,4.1h-1.3l2.1-8.2h1.6C96.3,95.1,96.8,96.5,96.1,99.2"/>
	<path class="st0" d="M109.8,91.8c-4.2,0-7.7,2.7-8.9,7.4c-1.2,4.8,1,7.4,5.2,7.4c3.9,0,7.5-2.4,8.8-7
		C116.3,94.6,114,91.8,109.8,91.8 M111.5,99.3c-0.7,2.3-2.6,4.2-4.7,4.1c-2.3-0.1-2.8-2.2-2.1-4.4s2.4-4.2,4.7-4.1
		C111.6,95.1,112.1,97.1,111.5,99.3"/>
	<path class="st0" d="M148.3,91.8c-4.2,0-7.7,2.7-8.9,7.4c-1.2,4.8,1,7.4,5.2,7.4c3.9,0,7.5-2.4,8.8-7
		C154.7,94.6,152.4,91.8,148.3,91.8 M150,99.3c-0.7,2.3-2.6,4.2-4.7,4.1c-2.3-0.1-2.8-2.2-2.1-4.4s2.4-4.2,4.7-4.1
		C150,95.1,150.6,97.1,150,99.3"/>
	<polygon class="st0" points="203.5,92 199.8,106.4 203.6,106.4 207.3,92 	"/>
	<polygon class="st0" points="273.4,92.1 262.8,92.1 262,95.1 265.5,95.1 262.6,106.4 266.4,106.4 269.2,95.1 272.7,95.1 	"/>
	<polygon class="st0" points="219.2,92.1 208.6,92.1 207.8,95.1 211.3,95.1 208.4,106.4 212.2,106.4 215,95.1 218.5,95.1 	"/>
	<path class="st0" d="M253.1,92.1l-2.1,8.2c-0.5,2.1-0.3,3.3,1.4,3.3c1.8,0,2.6-1.2,3.1-3.3l2.1-8.2h3.9l-2.5,9.7
		c-0.9,3.5-3.8,4.9-7.4,4.9s-5.8-1.4-4.9-4.9l2.5-9.7H253.1z"/>
	<polygon class="st0" points="202.1,92 195.9,106.4 191.8,106.4 192.4,97.5 192.4,97.5 189,106.4 185.1,106.4 185.5,92 188.7,92 
		188.2,102.1 188.2,102.1 191.9,92 195.6,92 194.8,102.1 194.8,102.1 199,92 	"/>
	<polygon class="st0" points="220.6,92 224.2,92 222.8,97.4 227.4,97.4 228.8,92 232.3,92 228.7,106.4 225.1,106.4 226.6,100.4 
		222,100.4 220.5,106.4 216.9,106.4 	"/>
	<path class="st0" d="M240.8,91.8c-4.2,0-7.7,2.7-8.9,7.4c-1.2,4.8,1,7.4,5.2,7.4c3.9,0,7.5-2.4,8.8-7
		C247.3,94.6,245,91.8,240.8,91.8 M242.5,99.3c-0.7,2.3-2.6,4.2-4.7,4.1c-2.3-0.1-2.8-2.2-2.1-4.4s2.4-4.2,4.7-4.1
		C242.5,95.1,243.1,97.1,242.5,99.3"/>
	<path class="st0" d="M331.5,99.2c1.5-6.1-1.7-7.1-3.5-7.1h-6.5l-3.7,14.3h5.7C327.6,106.4,330.4,103.4,331.5,99.2 M327.7,99.2
		c-0.5,2.1-2,4.1-4.1,4.1h-1.3l2.1-8.2h1.6C327.9,95.1,328.4,96.5,327.7,99.2"/>
	<path class="st0" d="M360.7,95.9c0.2-0.8,1.3-1,1.9-1c1.1,0,1.8,0.3,2.5,0.7c0,0,0.7-2.8,0.7-3c-1.2-0.7-2.5-0.8-3.4-0.8
		c-3.4,0-5.1,2-5.4,3.7c-0.6,3.3,3.3,5.2,2.9,6.7c-0.3,1.1-1.4,1.2-2,1.2c-1.1,0-2.1-0.3-2.9-0.8l-0.8,3.3c1.1,0.4,2.6,0.7,3.8,0.7
		c3.9,0,5.2-1.8,5.6-3.7C364.2,99.6,360.3,97.7,360.7,95.9"/>
	<path class="st0" d="M352,100.1c1.9-0.3,3.4-2,3.8-3.7c0.7-2.8-0.1-4.4-3.3-4.4h-6.4l-3.7,14.3h3.6l2.9-11.3h1.9
		c0.5,0,1.7,0,1.3,1.5c-0.3,1.1-1.2,1.9-2.8,1.8h-0.1H348l1.3,7.9h4.1C353.4,106.4,352.1,100.4,352,100.1"/>
	<path class="st0" d="M314.9,100.1c1.9-0.3,3.4-2,3.8-3.7c0.7-2.8-0.1-4.4-3.3-4.4H309l-3.7,14.3h3.6l2.9-11.3h1.9
		c0.5,0,1.7,0,1.3,1.5c-0.3,1.1-1.2,1.9-2.8,1.8h-0.1h-1.2l1.3,7.9h4.1C316.3,106.4,315,100.4,314.9,100.1"/>
	<polygon class="st0" points="340.6,106.4 341.4,103.3 335.4,103.3 336,100.7 340.9,100.7 341.7,97.6 336.8,97.6 337.5,95.1 
		343.4,95.1 344.2,92.1 334.5,92.1 330.8,106.4 	"/>
	<path class="st0" d="M282.4,92h7.2c1.1,0,2.5,0.9,1.9,3.5c-0.4,1.7-1.4,3-3.1,3.5l0,0c1.5,0.2,2.2,1.5,1.7,3.5
		c-0.8,3.1-2.7,3.8-5.4,3.8h-6L282.4,92z M282.9,103.6h1.3c1.1,0,2.2,0,2.6-1.6c0.4-1.5-0.7-1.5-1.6-1.5h-1.5L282.9,103.6z
		 M284.4,97.7h0.7c1,0,2.3,0.1,2.7-1.7c0.3-1.2-0.9-1.2-1.7-1.2H285L284.4,97.7z"/>
	<path class="st0" d="M300.6,91.8c-4.2,0-7.7,2.7-8.9,7.4c-1.2,4.8,1,7.4,5.2,7.4c3.9,0,7.5-2.4,8.8-7
		C307.1,94.6,304.8,91.8,300.6,91.8 M302.3,99.3c-0.7,2.3-2.6,4.2-4.7,4.1c-2.3-0.1-2.8-2.2-2.1-4.4c0.7-2.2,2.4-4.2,4.7-4.1
		C302.4,95.1,302.9,97.1,302.3,99.3"/>
</g>
</svg>
