<svg width="20" height="22" viewBox="0 0 20 22" fill="none" xmlns="http://www.w3.org/2000/svg">
<g id="Group">
<path id="Vector" d="M1 9C1 5.229 1 3.343 2.172 2.172C3.343 1 5.229 1 9 1H11C14.771 1 16.657 1 17.828 2.172C19 3.343 19 5.229 19 9V13C19 16.771 19 18.657 17.828 19.828C16.657 21 14.771 21 11 21H9C5.229 21 3.343 21 2.172 19.828C1 18.657 1 16.771 1 13V9Z" stroke="#202020" stroke-width="1.5"/>
<path id="Vector_2" d="M7 17H13M10 13.333C11.105 13.333 12 12.587 12 11.667C12 10.747 11.105 10 10 10C8.895 10 8 9.254 8 8.333C8 7.413 8.895 6.667 10 6.667M10 13.333C8.895 13.333 8 12.587 8 11.667M10 13.333V14M10 6.667V6M10 6.667C11.105 6.667 12 7.413 12 8.333" stroke="#202020" stroke-width="1.5" stroke-linecap="round"/>
</g>
</svg>
