<svg width="16" height="16" viewBox="0 0 16 16" fill="none" xmlns="http://www.w3.org/2000/svg">
<g id="octicon:people-24">
<path id="Vector" d="M2.33337 5.33387C2.3335 4.70181 2.49701 4.08052 2.80805 3.53029C3.11908 2.98006 3.56706 2.51957 4.10852 2.19351C4.64999 1.86746 5.26654 1.68691 5.89836 1.66938C6.53017 1.65185 7.15579 1.79795 7.71449 2.09348C8.2732 2.38902 8.74603 2.82397 9.08708 3.35611C9.42814 3.88825 9.62585 4.49952 9.66102 5.1306C9.69619 5.76168 9.56763 6.39113 9.28782 6.95788C9.008 7.52462 8.58644 8.00941 8.06403 8.3652C9.18903 8.77783 10.1648 9.51768 10.8658 10.4895C11.5668 11.4614 11.9609 12.6208 11.9974 13.8185C11.9958 13.9477 11.9444 14.0712 11.8539 14.1634C11.7634 14.2555 11.6408 14.3091 11.5117 14.313C11.3827 14.3168 11.2571 14.2707 11.1612 14.1841C11.0654 14.0976 11.0067 13.9773 10.9974 13.8485C10.9577 12.5495 10.4137 11.317 9.48081 10.4121C8.5479 9.50731 7.29934 9.00127 5.9997 9.00127C4.70006 9.00127 3.4515 9.50731 2.51858 10.4121C1.58567 11.317 1.04173 12.5495 1.00203 13.8485C0.995358 13.9791 0.937818 14.1018 0.841739 14.1905C0.745661 14.2791 0.618685 14.3266 0.488015 14.3228C0.357346 14.319 0.233375 14.2641 0.142661 14.17C0.0519469 14.0758 0.00170561 13.9499 0.00270003 13.8192C0.0390676 12.6214 0.433105 11.4618 1.13409 10.4898C1.83508 9.51782 2.81093 8.77787 3.93603 8.3652C3.44192 8.02896 3.03756 7.57695 2.75821 7.04859C2.47887 6.52022 2.33301 5.93154 2.33337 5.33387ZM6.00003 2.6672C5.29279 2.6672 4.61451 2.94816 4.11441 3.44825C3.61432 3.94835 3.33337 4.62663 3.33337 5.33387C3.33337 6.04111 3.61432 6.71939 4.11441 7.21949C4.61451 7.71959 5.29279 8.00054 6.00003 8.00054C6.70728 8.00054 7.38555 7.71959 7.88565 7.21949C8.38575 6.71939 8.6667 6.04111 8.6667 5.33387C8.6667 4.62663 8.38575 3.94835 7.88565 3.44825C7.38555 2.94816 6.70728 2.6672 6.00003 2.6672ZM11.5267 5.33387C11.428 5.33387 11.332 5.34054 11.2374 5.35387C11.1713 5.36571 11.1035 5.36411 11.038 5.34917C10.9725 5.33423 10.9108 5.30626 10.8563 5.26693C10.8019 5.2276 10.756 5.1777 10.7213 5.12023C10.6865 5.06276 10.6638 4.99888 10.6543 4.93241C10.6448 4.86594 10.6488 4.79824 10.666 4.73334C10.6832 4.66845 10.7134 4.60769 10.7546 4.55469C10.7958 4.50169 10.8473 4.45754 10.906 4.42487C10.9646 4.3922 11.0293 4.37168 11.096 4.36454C11.7591 4.26867 12.4352 4.396 13.0179 4.72649C13.6007 5.05697 14.057 5.57185 14.3151 6.19009C14.5732 6.80833 14.6184 7.49483 14.4435 8.14156C14.2687 8.78829 13.8838 9.35853 13.3494 9.76254C14.135 10.1143 14.802 10.6859 15.2699 11.4083C15.7379 12.1307 15.9868 12.9731 15.9867 13.8339C15.9867 13.9665 15.934 14.0937 15.8403 14.1874C15.7465 14.2812 15.6193 14.3339 15.4867 14.3339C15.3541 14.3339 15.2269 14.2812 15.1331 14.1874C15.0394 14.0937 14.9867 13.9665 14.9867 13.8339C14.9866 13.09 14.7469 12.3659 14.3031 11.7689C13.8593 11.1718 13.235 10.7337 12.5227 10.5192L12.1667 10.4125V9.2952L12.44 9.15587C12.8452 8.95063 13.1694 8.61484 13.3602 8.2027C13.5511 7.79056 13.5975 7.32612 13.4919 6.88438C13.3864 6.44263 13.135 6.04935 12.7784 5.76802C12.4219 5.4867 11.9809 5.33375 11.5267 5.33387Z" fill="#E40000"/>
</g>
</svg>
