<svg width="34" height="16" viewBox="0 0 34 16" fill="none" xmlns="http://www.w3.org/2000/svg">
<path d="M6.49266 12.1056C6.06086 13.0507 5.36662 13.32 4.33816 13.3211C3.19418 13.3218 2.04945 13.3226 0.903971 13.3234C0.365627 13.3234 0.00672931 13.1668 0.00560776 12.5821C-0.00186925 10.2066 -0.00186925 6.295 0.00560776 0.84715C0.00672931 0.193768 0.254593 -0.00112167 0.897242 4.84942e-06C2.09282 0.00150688 3.28727 0.00188348 4.4806 0.00113247C5.56962 0.00113247 6.01264 0.370629 6.54201 1.2741C6.56145 1.30789 6.59098 1.32479 6.63061 1.32479C8.23667 1.32479 9.84049 1.32442 11.4421 1.32367C12.1442 1.32367 12.8728 1.53883 13.628 1.96916C14.7443 2.60452 15.8617 3.238 16.9803 3.8696C17.1186 3.9477 17.2667 3.98751 17.4244 3.98901C18.6746 4.00253 19.9236 4.00628 21.1715 4.00028C21.8003 3.99652 22.2617 4.04609 22.5555 4.14898C23.7556 4.56579 24.4184 5.76891 24.2962 7.04526C24.2917 7.09257 24.3119 7.10872 24.3567 7.0937C26.1273 6.49063 27.8937 5.88381 29.6561 5.27324C30.5316 4.96908 31.1496 4.81663 31.51 4.81588C33.8854 4.81024 34.8286 7.74821 33.1497 9.26788C32.9149 9.48042 32.5455 9.69783 32.0416 9.92013C28.33 11.5596 24.6195 13.2006 20.9102 14.843C19.9442 15.2711 19.2488 15.5452 18.8241 15.6654C16.249 16.3954 14.0609 15.8873 11.8043 14.5659C10.8921 14.0312 9.98368 13.4908 9.07896 12.9448C8.22321 12.4289 7.50318 12.1901 6.5779 12.0594C6.53827 12.0541 6.50986 12.0695 6.49266 12.1056ZM5.30045 1.96916C5.29933 1.5546 4.91688 1.31578 4.54228 1.31578C3.49849 1.31428 2.44947 1.31954 1.39521 1.33155C1.3496 1.3323 1.32679 1.35558 1.32679 1.4014L1.31782 11.9175C1.31782 11.9663 1.34212 11.9911 1.39072 11.9918C2.43003 12.0061 3.46896 12.0068 4.50752 11.9941C4.83164 11.9896 5.18269 11.8915 5.27578 11.5772C5.39915 11.1525 5.30045 10.2299 5.30045 9.81086C5.30269 7.19659 5.30269 4.58269 5.30045 1.96916ZM18.094 5.31718C17.2629 5.369 16.7818 5.29127 16.0236 4.86432C14.9574 4.26351 13.8863 3.67133 12.8104 3.08779C12.2713 2.7949 11.6937 2.64845 11.0776 2.64845C9.61057 2.6477 8.15293 2.64808 6.70463 2.64958C6.68946 2.64958 6.67491 2.65563 6.66419 2.66641C6.65346 2.67718 6.64743 2.69179 6.64743 2.70703V10.6467C6.64736 10.6727 6.65712 10.6978 6.67478 10.717C6.69244 10.7362 6.7167 10.7481 6.74277 10.7504C9.53206 10.9892 11.4309 13.1499 13.9072 14.1536C15.7488 14.9001 17.6072 14.8558 19.4825 14.0207C23.5866 12.1912 27.6956 10.3737 31.8094 8.56831C33.4088 7.86649 32.5497 5.70808 31.104 6.20262C28.1528 7.21048 25.2308 8.22097 22.3379 9.23408C22.1687 9.293 21.9909 9.32308 21.8119 9.32308C19.6114 9.32308 17.3754 9.32308 15.1039 9.32308C13.9756 9.32308 13.9958 8.0073 14.975 8.00505C17.0954 8.0013 19.2159 7.99904 21.3364 7.99829C21.6848 7.99754 21.9402 7.96863 22.1024 7.91155C23.1948 7.52516 23.2957 5.95817 22.2437 5.47489C22.0329 5.37801 21.6833 5.32319 21.1951 5.31042C19.8014 5.27287 18.7677 5.27512 18.094 5.31718Z" fill="white"/>
</svg>
