<svg width="16" height="16" viewBox="0 0 16 16" fill="none" xmlns="http://www.w3.org/2000/svg">
<g id="mdi:theme-outline">
<path id="Vector" d="M7.33333 9.00065V14.334H2V9.00065H7.33333ZM6 10.334H3.33333V13.0007H6V10.334ZM8 1.33398L11.6667 7.33398H4.33333L8 1.33398ZM8 3.90732L6.72 6.00065H9.28L8 3.90732ZM11.6667 8.66732C13.3333 8.66732 14.6667 10.0007 14.6667 11.6673C14.6667 13.334 13.3333 14.6673 11.6667 14.6673C10 14.6673 8.66667 13.334 8.66667 11.6673C8.66667 10.0007 10 8.66732 11.6667 8.66732ZM11.6667 10.0007C11.2246 10.0007 10.8007 10.1762 10.4882 10.4888C10.1756 10.8014 10 11.2253 10 11.6673C10 12.1093 10.1756 12.5333 10.4882 12.8458C10.8007 13.1584 11.2246 13.334 11.6667 13.334C12.1087 13.334 12.5326 13.1584 12.8452 12.8458C13.1577 12.5333 13.3333 12.1093 13.3333 11.6673C13.3333 11.2253 13.1577 10.8014 12.8452 10.4888C12.5326 10.1762 12.1087 10.0007 11.6667 10.0007Z" fill="#E40000"/>
</g>
</svg>
