<svg width="24" height="24" viewBox="0 0 24 24" fill="none" xmlns="http://www.w3.org/2000/svg">
<path d="M11.8984 15C13.8314 15 15.3984 13.433 15.3984 11.5C15.3984 9.567 13.8314 8 11.8984 8C9.96544 8 8.39844 9.567 8.39844 11.5C8.39844 13.433 9.96544 15 11.8984 15Z" stroke="#202020" stroke-linejoin="round"/>
<path d="M11.8984 15C13.8314 15 15.3984 13.433 15.3984 11.5C15.3984 9.567 13.8314 8 11.8984 8C9.96544 8 8.39844 9.567 8.39844 11.5C8.39844 13.433 9.96544 15 11.8984 15Z" stroke="black" stroke-opacity="0.2" stroke-linejoin="round"/>
<path d="M11.8984 15C13.8314 15 15.3984 13.433 15.3984 11.5C15.3984 9.567 13.8314 8 11.8984 8C9.96544 8 8.39844 9.567 8.39844 11.5C8.39844 13.433 9.96544 15 11.8984 15Z" stroke="black" stroke-opacity="0.2" stroke-linejoin="round"/>
<path d="M11.7913 6C7.49127 6 4.26727 9.583 3.18627 10.965C3.06565 11.117 3 11.3054 3 11.4995C3 11.6936 3.06565 11.882 3.18627 12.034C4.26727 13.417 7.49127 17 11.7913 17C16.0913 17 19.3153 13.417 20.3963 12.035C20.5171 11.883 20.5828 11.6946 20.5828 11.5005C20.5828 11.3064 20.5171 11.118 20.3963 10.966C19.3153 9.583 16.0913 6 11.7913 6Z" stroke="#202020" stroke-linecap="round" stroke-linejoin="round"/>
<path d="M11.7913 6C7.49127 6 4.26727 9.583 3.18627 10.965C3.06565 11.117 3 11.3054 3 11.4995C3 11.6936 3.06565 11.882 3.18627 12.034C4.26727 13.417 7.49127 17 11.7913 17C16.0913 17 19.3153 13.417 20.3963 12.035C20.5171 11.883 20.5828 11.6946 20.5828 11.5005C20.5828 11.3064 20.5171 11.118 20.3963 10.966C19.3153 9.583 16.0913 6 11.7913 6Z" stroke="black" stroke-opacity="0.2" stroke-linecap="round" stroke-linejoin="round"/>
<path d="M11.7913 6C7.49127 6 4.26727 9.583 3.18627 10.965C3.06565 11.117 3 11.3054 3 11.4995C3 11.6936 3.06565 11.882 3.18627 12.034C4.26727 13.417 7.49127 17 11.7913 17C16.0913 17 19.3153 13.417 20.3963 12.035C20.5171 11.883 20.5828 11.6946 20.5828 11.5005C20.5828 11.3064 20.5171 11.118 20.3963 10.966C19.3153 9.583 16.0913 6 11.7913 6Z" stroke="black" stroke-opacity="0.2" stroke-linecap="round" stroke-linejoin="round"/>
<g clip-path="url(#clip0_2973_99326)">
<path d="M5 5L18 18" stroke="white" stroke-width="3" stroke-linecap="round"/>
<path d="M5 5L18 18" stroke="#202020" stroke-linecap="round"/>
<path d="M5 5L18 18" stroke="black" stroke-opacity="0.2" stroke-linecap="round"/>
<path d="M5 5L18 18" stroke="black" stroke-opacity="0.2" stroke-linecap="round"/>
</g>
<defs>
<clipPath id="clip0_2973_99326">
<rect width="18.658" height="16.241" fill="white" transform="translate(2 3)"/>
</clipPath>
</defs>
</svg>
