<svg width="21" height="21" viewBox="0 0 21 21" fill="none" xmlns="http://www.w3.org/2000/svg">
<g id="Group">
<path id="Vector" d="M8.75 11.375C9.12577 11.8773 9.60519 12.293 10.1557 12.5938C10.7063 12.8946 11.3151 13.0734 11.9408 13.1183C12.5666 13.1631 13.1946 13.0728 13.7824 12.8535C14.3702 12.6343 14.904 12.2912 15.3475 11.8475L17.9725 9.22247C18.7694 8.39734 19.2104 7.2922 19.2004 6.14509C19.1905 4.99798 18.7304 3.90067 17.9192 3.08951C17.108 2.27835 16.0107 1.81824 14.8636 1.80827C13.7165 1.7983 12.6114 2.23928 11.7863 3.03622L10.2812 4.53247" stroke="black" stroke-width="2" stroke-linecap="round" stroke-linejoin="round"/>
<path id="Vector_2" d="M12.2504 9.62507C11.8746 9.12271 11.3952 8.70704 10.8447 8.40625C10.2941 8.10546 9.68535 7.9266 9.0596 7.88178C8.43385 7.83697 7.80578 7.92725 7.21799 8.14652C6.6302 8.36578 6.09644 8.70889 5.65292 9.15257L3.02792 11.7776C2.23098 12.6027 1.79 13.7078 1.79997 14.855C1.80994 16.0021 2.27005 17.0994 3.08121 17.9105C3.89237 18.7217 4.98968 19.1818 6.13679 19.1918C7.2839 19.2017 8.38903 18.7608 9.21417 17.9638L10.7104 16.4676" stroke="black" stroke-width="2" stroke-linecap="round" stroke-linejoin="round"/>
</g>
</svg>
