<svg xmlns="http://www.w3.org/2000/svg" width="40" height="40" viewBox="0 0 40 40" fill="none">
  <path d="M24.1673 4.16667C24.1673 6.66667 21.6673 14.1667 21.6673 14.1667H18.334C18.334 14.1667 15.834 6.66667 15.834 4.16667C15.834 3.0616 16.273 2.00179 17.0544 1.22039C17.8358 0.438987 18.8956 0 20.0007 0C21.1057 0 22.1655 0.438987 22.9469 1.22039C23.7283 2.00179 24.1673 3.0616 24.1673 4.16667ZM20.0007 16.6667C18.1673 16.6667 16.6673 18.1667 16.6673 20C16.6673 21.8333 18.1673 23.3333 20.0007 23.3333C21.834 23.3333 23.334 21.8333 23.334 20C23.334 18.1667 21.834 16.6667 20.0007 16.6667ZM26.8007 8.51667C27.1007 7.26667 27.3507 6.06667 27.4507 5.08333C30.2217 6.46717 32.5521 8.59609 34.1802 11.231C35.8082 13.866 36.6695 16.9026 36.6673 20C36.6673 29.2 29.2007 36.6667 20.0007 36.6667C10.8007 36.6667 3.33398 29.2 3.33398 20C3.33398 13.4667 7.08399 7.81667 12.5507 5.08333C12.6673 6.06667 12.9007 7.28333 13.2007 8.51667C11.211 9.70169 9.56297 11.3828 8.41778 13.3957C7.27258 15.4086 6.66943 17.6842 6.66732 20C6.66732 27.3667 12.634 33.3333 20.0007 33.3333C27.3673 33.3333 33.334 27.3667 33.334 20C33.334 15.1167 30.7007 10.85 26.8007 8.51667ZM30.0007 20C30.0007 25.5167 25.5173 30 20.0007 30C14.484 30 10.0007 25.5167 10.0007 20C10.0007 16.6667 11.634 13.7167 14.134 11.9C14.5173 13.25 15.2173 15.35 15.2173 15.35C14.0507 16.55 13.334 18.2 13.334 20C13.334 23.6833 16.3173 26.6667 20.0007 26.6667C23.684 26.6667 26.6673 23.6833 26.6673 20C26.6673 18.2 25.9507 16.55 24.784 15.35C24.784 15.35 25.4673 13.3167 25.8673 11.9C27.1476 12.8272 28.1898 14.0448 28.9083 15.4528C29.6268 16.8609 30.0012 18.4192 30.0007 20Z" fill="#E40000"/>
</svg>