<svg width="22" height="22" viewBox="0 0 22 22" fill="none" xmlns="http://www.w3.org/2000/svg">
<path d="M6.66691 0.927814C6.59342 0.970782 6.5036 1.04813 6.46277 1.10828C6.38927 1.22 6.38927 1.28016 6.37294 3.11063C6.36477 4.47703 6.37294 5.03563 6.4056 5.11297C6.4301 5.17313 6.51176 5.27625 6.57709 5.345C6.82206 5.56844 7.24669 5.4825 7.41001 5.18172C7.47534 5.06141 7.47534 4.90672 7.47534 3.15359C7.47534 1.28875 7.47534 1.25438 7.39368 1.14266C7.20586 0.867657 6.92822 0.78172 6.66691 0.927814Z" fill="black"/>
<path d="M14.9145 0.944863C14.841 0.996426 14.7512 1.09096 14.7103 1.15111C14.6368 1.26283 14.6287 1.31439 14.6205 3.11049C14.6124 4.8808 14.6124 4.96674 14.6858 5.13861C14.7838 5.37064 14.9472 5.47377 15.2085 5.47377C15.3636 5.47377 15.4289 5.45658 15.5188 5.37064C15.7556 5.16439 15.7474 5.21596 15.7474 3.18783C15.7474 1.55502 15.7392 1.31439 15.6902 1.19408C15.5433 0.884707 15.1595 0.764395 14.9145 0.944863Z" fill="black"/>
<path d="M3.65368 2.60371C3.14739 2.68105 2.64111 3.08496 2.4043 3.59199L2.26548 3.89277L2.25731 11.7818L2.24915 19.6709L2.3308 19.9201C2.49412 20.4271 2.85342 20.8311 3.34338 21.0373L3.55569 21.1318L10.9458 21.1404C16.1312 21.149 18.4013 21.1404 18.532 21.1061C19.1199 20.9771 19.5935 20.5217 19.7895 19.9201C19.863 19.6795 19.863 19.6537 19.8548 11.7904L19.8467 3.90137L19.7242 3.63496C19.4792 3.10215 18.9811 2.69824 18.4258 2.6123C18.287 2.59512 17.699 2.57793 17.1029 2.58652L16.025 2.59512L16.0169 3.17949L16.0087 3.76387L17.2009 3.77246C18.3278 3.78105 18.385 3.78105 18.483 3.86699C18.5401 3.90996 18.6218 3.9959 18.6626 4.05605C18.7361 4.16777 18.7443 4.21074 18.7443 5.68027V7.20137L11.0438 7.20996L3.33521 7.21855L3.34338 5.68887C3.35154 4.21934 3.35971 4.15059 3.4332 4.04746C3.47403 3.9873 3.55569 3.90137 3.61285 3.8584C3.71084 3.78105 3.768 3.77246 4.88673 3.76387L6.05446 3.75527L6.07079 3.38574C6.07079 3.17949 6.07079 2.91309 6.07079 2.79277L6.05446 2.56934H4.95206C4.34778 2.57793 3.768 2.58652 3.65368 2.60371ZM18.7606 13.9732L18.7524 19.5334L18.6626 19.6795C18.4911 19.9803 19.1526 19.9545 11.052 19.9545C4.02931 19.9545 3.77617 19.9545 3.65368 19.8771C3.58019 19.8342 3.49036 19.7396 3.44953 19.6709C3.37604 19.5334 3.37604 19.4561 3.35971 13.9732L3.35154 8.41309H11.052H18.7606V13.9732Z" fill="black"/>
<path d="M5.93198 10.2004C5.71966 10.3551 5.67883 10.4582 5.67883 10.9824C5.67883 11.5152 5.72783 11.6527 5.94831 11.7988C6.06263 11.8676 6.14429 11.8762 6.83023 11.8762C7.55699 11.8762 7.59782 11.8762 7.71214 11.7816C7.96529 11.6012 7.99795 11.5152 7.99795 11.0082C7.99795 10.484 7.94895 10.3379 7.74481 10.2004C7.63865 10.1316 7.54882 10.123 6.83023 10.123C6.12796 10.123 6.02997 10.1316 5.93198 10.2004Z" fill="black"/>
<path d="M10.1456 10.2174C9.9251 10.3721 9.88427 10.5182 9.89243 11.0424C9.9006 11.4549 9.91693 11.515 9.99043 11.6354C10.1374 11.8502 10.2436 11.876 11.0602 11.876C11.8604 11.876 11.9747 11.8502 12.1299 11.6182C12.2034 11.5064 12.2116 11.4377 12.2279 11.0338C12.236 10.5096 12.1952 10.3635 11.9747 10.2088C11.8523 10.1229 11.8196 10.1143 11.0602 10.1143C10.3007 10.1229 10.2681 10.1314 10.1456 10.2174Z" fill="black"/>
<path d="M14.351 10.2004C14.1387 10.3379 14.0979 10.4754 14.0979 11.0082C14.0979 11.5238 14.1306 11.6012 14.3837 11.7816C14.498 11.8676 14.5389 11.8762 15.2656 11.8762C15.9597 11.8762 16.0332 11.8676 16.1475 11.7988C16.3762 11.6527 16.417 11.5238 16.417 10.9824C16.417 10.4582 16.3844 10.3551 16.1639 10.2004C16.0659 10.1316 15.9761 10.123 15.2575 10.123C14.547 10.123 14.4654 10.1316 14.351 10.2004Z" fill="black"/>
<path d="M6.00547 13.3457C5.96464 13.3629 5.87481 13.4488 5.80132 13.5262L5.67883 13.6723L5.69516 14.2051C5.70333 14.7293 5.70333 14.7379 5.81765 14.8496C5.9973 15.0473 6.0708 15.0559 6.90372 15.0473C7.75297 15.0387 7.7938 15.0215 7.94895 14.7551C8.05511 14.5746 8.04694 13.7754 7.94079 13.5863C7.78564 13.3199 7.72031 13.3027 6.86289 13.3027C6.4301 13.3113 6.0463 13.3285 6.00547 13.3457Z" fill="black"/>
<path d="M10.1456 13.3973C9.94144 13.5434 9.88428 13.698 9.88428 14.1793C9.88428 14.6605 9.93327 14.8238 10.1456 14.9613C10.2681 15.0473 10.3007 15.0559 11.0602 15.0559C11.8114 15.0559 11.8441 15.0559 11.9666 14.9613C12.1789 14.8066 12.2279 14.652 12.2279 14.1793C12.2279 13.698 12.1789 13.5348 11.9666 13.3973C11.8441 13.3113 11.8114 13.3027 11.052 13.3027C10.3007 13.3113 10.2681 13.3113 10.1456 13.3973Z" fill="black"/>
<path d="M14.3429 13.406C14.1469 13.5521 14.0979 13.6982 14.0979 14.2052C14.0979 14.5919 14.1061 14.6607 14.1877 14.7896C14.3347 15.0388 14.4327 15.0646 15.2738 15.0646C16.074 15.0646 16.1312 15.056 16.3109 14.8497C16.4007 14.7466 16.4089 14.7294 16.4089 14.188V13.638L16.2619 13.4919L16.123 13.3372L15.2983 13.32C14.4735 13.3029 14.4735 13.3029 14.3429 13.406Z" fill="black"/>
<path d="M5.9728 16.5684C5.71965 16.7316 5.71149 16.766 5.71149 17.3762V17.9262L5.85847 18.0723L5.98913 18.2184L6.79755 18.227C7.70397 18.2441 7.7693 18.227 7.93261 17.9605C8.00611 17.8316 8.01427 17.7629 8.01427 17.359C8.01427 16.9551 8.00611 16.8863 7.92445 16.7574C7.77746 16.5082 7.67947 16.4824 6.83022 16.4824C6.16878 16.491 6.07079 16.4996 5.9728 16.5684Z" fill="black"/>
<path d="M10.1456 16.5857C9.94144 16.7318 9.88428 16.8865 9.88428 17.3678C9.88428 17.849 9.93327 18.0123 10.1456 18.1498C10.2681 18.2357 10.3007 18.2443 11.0602 18.2443C11.8114 18.2443 11.8441 18.2443 11.9747 18.1498C12.1789 18.0037 12.2361 17.849 12.2361 17.3678C12.2361 16.8865 12.1871 16.7232 11.9747 16.5857C11.8523 16.4998 11.8196 16.4912 11.0602 16.4912C10.3007 16.4912 10.2681 16.4912 10.1456 16.5857Z" fill="black"/>
<path d="M7.76111 3.1623V3.75527H11.052H14.3428V3.1623V2.56934H11.052H7.76111V3.1623Z" fill="black"/>
</svg>
