<svg xmlns="http://www.w3.org/2000/svg" width="44" height="44" viewBox="0 0 44 44" fill="none">
  <path d="M29.7037 9.34392C29.7015 9.35471 29.7018 9.36585 29.7044 9.37653C29.7071 9.38722 29.712 9.39719 29.719 9.40574C29.7259 9.41428 29.7347 9.42118 29.7446 9.42594C29.7545 9.4307 29.7654 9.43321 29.7764 9.43328C32.1675 9.43328 34.5681 9.43328 36.9782 9.43328C37.2983 9.43328 37.5448 9.69449 37.6931 9.99106C39.2363 13.0719 40.7812 16.1519 42.3277 19.2308C42.3932 19.3617 42.4259 19.4999 42.4259 19.6452C42.4298 27.4044 42.4305 35.1649 42.4278 42.9267C42.4278 43.6239 42.2187 44 41.4939 44C28.5452 44 15.5961 44 2.64677 44C1.94555 44 1.57529 43.7928 1.57431 43.0651C1.57104 35.2588 1.57169 27.4522 1.57628 19.6452C1.57693 19.4999 1.60999 19.362 1.67547 19.2318C3.26779 16.088 4.84635 12.9374 6.41117 9.77993C6.53001 9.54032 6.91499 9.43426 7.20176 9.43426C9.54965 9.43295 11.9044 9.43262 14.266 9.43328C14.2708 9.43336 14.2756 9.43237 14.28 9.43039C14.2843 9.42841 14.2882 9.42548 14.2913 9.42181C14.2944 9.41815 14.2967 9.41384 14.2979 9.4092C14.2991 9.40456 14.2993 9.3997 14.2984 9.39498C13.4961 5.13012 16.1585 1.09602 20.3816 0.175879C25.7439 -0.993694 30.8459 3.85056 29.7037 9.34392ZM28.2787 7.86206C28.2787 6.19704 27.6172 4.60021 26.4397 3.42286C25.2623 2.24551 23.6653 1.58408 22.0001 1.58408C20.3349 1.58408 18.7379 2.24551 17.5605 3.42286C16.383 4.60021 15.7215 6.19704 15.7215 7.86206C15.7215 9.52709 16.383 11.1239 17.5605 12.3013C18.7379 13.4786 20.3349 14.14 22.0001 14.14C23.6653 14.14 25.2623 13.4786 26.4397 12.3013C27.6172 11.1239 28.2787 9.52709 28.2787 7.86206ZM29.1881 11.0428C28.6372 12.2222 27.8299 13.2896 26.7849 14.0762C26.7782 14.0812 26.7733 14.0882 26.7709 14.0962C26.7685 14.1041 26.7686 14.1127 26.7713 14.1205C26.7741 14.1284 26.7792 14.1352 26.7861 14.14C26.7929 14.1447 26.8011 14.1471 26.8095 14.1469C28.5596 14.1463 30.3084 14.1466 32.0559 14.1479C33.3149 14.1489 33.3287 15.7181 32.0009 15.7181C25.3147 15.7181 18.6289 15.7181 11.9434 15.7181C11.7325 15.7181 11.5721 15.692 11.4621 15.6396C10.8522 15.3509 10.8552 14.4906 11.4769 14.2216C11.5921 14.1711 11.7702 14.1459 12.0111 14.1459C13.7436 14.1473 15.473 14.1473 17.1996 14.1459C17.2063 14.146 17.2129 14.144 17.2184 14.1401C17.2239 14.1361 17.228 14.1306 17.2301 14.1241C17.2323 14.1176 17.2324 14.1106 17.2304 14.1039C17.2285 14.0973 17.2246 14.0914 17.2192 14.087C16.1762 13.2798 15.3824 12.2746 14.8376 11.0713C14.8173 11.0268 14.7826 11.0045 14.7335 11.0045H7.59559C7.5856 11.0045 7.57578 11.0073 7.56727 11.0127C7.55876 11.0181 7.55189 11.0258 7.54746 11.0349L3.65834 18.8134C3.65579 18.8184 3.65458 18.824 3.65482 18.8296C3.65506 18.8352 3.65675 18.8406 3.65972 18.8453C3.66268 18.8501 3.66683 18.854 3.67175 18.8567C3.67667 18.8593 3.6822 18.8607 3.6878 18.8606H40.2918C40.3435 18.8606 40.3579 18.8373 40.335 18.7908L36.4635 11.0506C36.4567 11.0368 36.4462 11.0251 36.4332 11.0169C36.4202 11.0088 36.4052 11.0045 36.3899 11.0045H29.249C29.2361 11.0045 29.2235 11.0081 29.2127 11.0149C29.2019 11.0217 29.1934 11.0314 29.1881 11.0428ZM40.8575 20.4878C40.8575 20.4729 40.8516 20.4587 40.8411 20.4482C40.8306 20.4377 40.8163 20.4318 40.8015 20.4318H3.20068C3.18583 20.4318 3.17159 20.4377 3.16109 20.4482C3.15059 20.4587 3.1447 20.4729 3.1447 20.4878V42.3728C3.1447 42.3877 3.15059 42.4019 3.16109 42.4124C3.17159 42.4229 3.18583 42.4288 3.20068 42.4288H40.8015C40.8163 42.4288 40.8306 42.4229 40.8411 42.4124C40.8516 42.4019 40.8575 42.3877 40.8575 42.3728V20.4878Z" fill="white"/>
  <path d="M22.8484 4.08893C23.6457 4.4097 24.1362 5.01155 24.32 5.89448C24.4282 6.41401 24.2983 6.77184 23.9302 6.96797C23.5365 7.17657 23.1004 7.03783 22.8917 6.65606C22.8622 6.60161 22.8274 6.45271 22.7874 6.20935C22.7008 5.67801 22.187 5.35331 21.685 5.57666C21.0925 5.83938 21.0629 6.65508 21.622 6.966C21.7165 7.01914 21.9006 7.05686 22.1742 7.07916C24.6595 7.28579 25.1733 10.6499 22.8858 11.626C22.8202 11.6542 22.7881 11.6959 22.7894 11.751C22.816 12.8186 21.2381 12.8874 21.2106 11.7155C21.2103 11.7003 21.2056 11.6854 21.1971 11.6727C21.1885 11.66 21.1765 11.6499 21.1624 11.6437C20.2771 11.258 19.7761 10.5997 19.6593 9.66892C19.5097 8.48227 21.062 8.23924 21.2037 9.4436C21.2942 10.217 22.2018 10.5269 22.6663 9.84997C23.0227 9.32946 22.5935 8.68694 22.0108 8.64955C19.3956 8.48031 18.7085 5.09748 21.1624 4.0968C21.1763 4.09129 21.1882 4.08177 21.1967 4.06949C21.2051 4.0572 21.2096 4.04272 21.2096 4.02792C21.2303 2.86489 22.7461 2.83833 22.7992 4.01907C22.8005 4.05252 22.8169 4.07581 22.8484 4.08893Z" fill="white"/>
  <path d="M22.1074 25.5146C23.2286 24.0867 24.9213 23.3428 26.6664 23.6321C29.9737 24.1807 31.6941 28.1162 29.9529 31.095C29.7453 31.4511 29.3155 31.9705 28.6636 32.6531C26.6921 34.7161 24.7193 36.7777 22.7451 38.838C22.229 39.3773 21.8326 39.46 21.3056 38.9103C19.3598 36.8762 17.4136 34.8425 15.4672 32.8091C14.7876 32.099 14.3479 31.5879 14.1482 31.2758C12.6275 28.8974 13.376 25.6851 15.742 24.2479C17.4762 23.195 19.6643 23.4326 21.1859 24.8027C21.4575 25.0465 21.7007 25.2862 21.9156 25.5218C21.9281 25.5355 21.9433 25.5463 21.9601 25.5534C21.9769 25.5605 21.995 25.5638 22.0131 25.5631C22.0312 25.5625 22.0489 25.5578 22.0652 25.5494C22.0815 25.541 22.0959 25.5292 22.1074 25.5146ZM22.9637 26.9125C22.4584 27.4219 22.0343 27.9706 21.357 27.2659C20.7865 26.6718 20.1586 25.9248 19.4843 25.5756C16.7624 24.1621 13.8723 27.2122 15.2605 30.0329C15.3937 30.3029 15.631 30.6187 15.9724 30.9803C17.9597 33.0854 19.952 35.1711 21.9492 37.2375C21.9565 37.2451 21.9651 37.251 21.9745 37.255C21.984 37.259 21.9941 37.2611 22.0043 37.261C22.0145 37.2609 22.0246 37.2587 22.034 37.2545C22.0434 37.2503 22.0519 37.2442 22.059 37.2365C24.1175 35.0822 26.1691 32.9259 28.2148 30.7623C29.0799 29.8469 29.2687 28.4376 28.8416 27.3289C28.192 25.6417 26.4588 24.8079 24.7938 25.4257C24.0433 25.7037 23.5074 26.3629 22.9637 26.9125Z" fill="white"/>
</svg>