<svg xmlns="http://www.w3.org/2000/svg" width="60" height="60" viewBox="0 0 60 60" fill="none">
  <circle cx="30" cy="30" r="30" fill="#202020"/>
  <circle cx="30" cy="30" r="30" fill="black" fill-opacity="0.2"/>
  <circle cx="30" cy="30" r="30" fill="black" fill-opacity="0.2"/>
  <path fill-rule="evenodd" clip-rule="evenodd" d="M39.4906 23.3857L30.4157 30.792C30.1578 31.0026 29.8334 31.1178 29.4986 31.1178C29.1637 31.1178 28.8393 31.0026 28.5814 30.792L19.5108 23.3857C19.4621 23.53 19.4374 23.6812 19.4375 23.8333V35.1667C19.4375 35.5424 19.589 35.9027 19.8585 36.1684C20.1281 36.4341 20.4938 36.5833 20.875 36.5833H38.125C38.5062 36.5833 38.8719 36.4341 39.1415 36.1684C39.411 35.9027 39.5625 35.5424 39.5625 35.1667V23.8333C39.5631 23.6813 39.5388 23.5301 39.4906 23.3857ZM20.875 21H38.125C38.8875 21 39.6188 21.2985 40.1579 21.8299C40.6971 22.3612 41 23.0819 41 23.8333V35.1667C41 35.9181 40.6971 36.6388 40.1579 37.1701C39.6188 37.7015 38.8875 38 38.125 38H20.875C20.1125 38 19.3812 37.7015 18.8421 37.1701C18.3029 36.6388 18 35.9181 18 35.1667V23.8333C18 23.0819 18.3029 22.3612 18.8421 21.8299C19.3812 21.2985 20.1125 21 20.875 21ZM20.5731 22.4167L28.5886 28.9376C28.8453 29.1465 29.1677 29.2612 29.5007 29.262C29.8336 29.2628 30.1565 29.1496 30.4142 28.9418L38.5103 22.4167H20.5731Z" fill="white"/>
</svg>