<svg width="20" height="13" viewBox="0 0 20 13" fill="none" xmlns="http://www.w3.org/2000/svg">
<g id="Group 20019">
<g id="Ellipse 907">
<path d="M9.89844 10C11.8314 10 13.3984 8.433 13.3984 6.5C13.3984 4.567 11.8314 3 9.89844 3C7.96544 3 6.39844 4.567 6.39844 6.5C6.39844 8.433 7.96544 10 9.89844 10Z" stroke="#202020" stroke-linejoin="round"/>
<path d="M9.89844 10C11.8314 10 13.3984 8.433 13.3984 6.5C13.3984 4.567 11.8314 3 9.89844 3C7.96544 3 6.39844 4.567 6.39844 6.5C6.39844 8.433 7.96544 10 9.89844 10Z" stroke="black" stroke-opacity="0.2" stroke-linejoin="round"/>
<path d="M9.89844 10C11.8314 10 13.3984 8.433 13.3984 6.5C13.3984 4.567 11.8314 3 9.89844 3C7.96544 3 6.39844 4.567 6.39844 6.5C6.39844 8.433 7.96544 10 9.89844 10Z" stroke="black" stroke-opacity="0.2" stroke-linejoin="round"/>
</g>
<g id="Path 8390">
<path d="M9.79127 1C5.49127 1 2.26727 4.583 1.18627 5.965C1.06565 6.11704 1 6.30542 1 6.4995C1 6.69358 1.06565 6.88196 1.18627 7.034C2.26727 8.417 5.49127 12 9.79127 12C14.0913 12 17.3153 8.417 18.3963 7.035C18.5171 6.88303 18.5828 6.69463 18.5828 6.5005C18.5828 6.30637 18.5171 6.11797 18.3963 5.966C17.3153 4.583 14.0913 1 9.79127 1Z" stroke="#202020" stroke-linecap="round" stroke-linejoin="round"/>
<path d="M9.79127 1C5.49127 1 2.26727 4.583 1.18627 5.965C1.06565 6.11704 1 6.30542 1 6.4995C1 6.69358 1.06565 6.88196 1.18627 7.034C2.26727 8.417 5.49127 12 9.79127 12C14.0913 12 17.3153 8.417 18.3963 7.035C18.5171 6.88303 18.5828 6.69463 18.5828 6.5005C18.5828 6.30637 18.5171 6.11797 18.3963 5.966C17.3153 4.583 14.0913 1 9.79127 1Z" stroke="black" stroke-opacity="0.2" stroke-linecap="round" stroke-linejoin="round"/>
<path d="M9.79127 1C5.49127 1 2.26727 4.583 1.18627 5.965C1.06565 6.11704 1 6.30542 1 6.4995C1 6.69358 1.06565 6.88196 1.18627 7.034C2.26727 8.417 5.49127 12 9.79127 12C14.0913 12 17.3153 8.417 18.3963 7.035C18.5171 6.88303 18.5828 6.69463 18.5828 6.5005C18.5828 6.30637 18.5171 6.11797 18.3963 5.966C17.3153 4.583 14.0913 1 9.79127 1Z" stroke="black" stroke-opacity="0.2" stroke-linecap="round" stroke-linejoin="round"/>
</g>
</g>
</svg>
