<svg xmlns="http://www.w3.org/2000/svg" width="35" height="35" viewBox="0 0 35 35" fill="none">
  <path d="M31.7949 17.4844H31.5449V17.7344V28.9844C31.5449 29.664 31.2749 30.3158 30.7944 30.7963C30.3138 31.2769 29.662 31.5469 28.9824 31.5469H6.48242C5.8028 31.5469 5.15102 31.2769 4.67046 30.7963C4.1899 30.3158 3.91992 29.664 3.91992 28.9844V17.7344V17.4844H3.66992C3.36327 17.4844 3.06917 17.3626 2.85233 17.1457C2.63549 16.9289 2.51367 16.6348 2.51367 16.3281V12.1094C2.51367 11.4298 2.78365 10.778 3.26421 10.2974C3.74477 9.81685 4.39655 9.54688 5.07617 9.54688H9.53398H9.88695L9.76982 9.21391C9.62031 8.7889 9.54425 8.34154 9.54492 7.891V7.89062C9.54492 6.83805 9.96306 5.82858 10.7073 5.0843C11.4516 4.34001 12.4611 3.92188 13.5137 3.92188C14.8342 3.92188 15.9998 4.58206 16.7302 5.56476L17.1809 6.17108V6.15947L17.5315 6.63312L17.7324 6.90456L17.9334 6.63312L18.284 6.15947V6.17108L18.7346 5.56476C19.465 4.58206 20.6306 3.92188 21.9512 3.92188C23.0037 3.92188 24.0132 4.34001 24.7575 5.0843C25.5018 5.82858 25.9199 6.83805 25.9199 7.89062V7.891C25.9206 8.34154 25.8445 8.7889 25.695 9.21391L25.5779 9.54688H25.9309H30.3887C31.0683 9.54688 31.7201 9.81685 32.2006 10.2974C32.6812 10.778 32.9512 11.4298 32.9512 12.1094V16.3281C32.9512 16.6348 32.8294 16.9289 32.6125 17.1457C32.3957 17.3626 32.1016 17.4844 31.7949 17.4844ZM6.23242 28.9844V29.2344H6.48242H16.3262H16.5762V28.9844V17.7344V17.4844H16.3262H6.48242H6.23242V17.7344V28.9844ZM28.9824 29.2344H29.2324V28.9844V17.7344V17.4844H28.9824H19.1387H18.8887V17.7344V28.9844V29.2344H19.1387H28.9824ZM5.07617 11.8594H4.82617V12.1094V14.9219V15.1719H5.07617H16.3262H16.5762V14.9219V12.1094V11.8594H16.3262H5.07617ZM19.1387 11.8594H18.8887V12.1094V14.9219V15.1719H19.1387H30.3887H30.6387V14.9219V12.1094V11.8594H30.3887H19.1387ZM13.5137 6.23438C13.0744 6.23438 12.6531 6.40887 12.3425 6.71948C12.0319 7.03009 11.8574 7.45136 11.8574 7.89062C11.8574 8.32989 12.0319 8.75116 12.3425 9.06177C12.6531 9.37238 13.0744 9.54688 13.5137 9.54688C13.9529 9.54688 14.3742 9.37238 14.6848 9.06177C14.9954 8.75116 15.1699 8.32989 15.1699 7.89062C15.1699 7.45136 14.9954 7.03009 14.6848 6.71948C14.3742 6.40887 13.9529 6.23438 13.5137 6.23438ZM21.9512 6.23438C21.5119 6.23438 21.0906 6.40887 20.78 6.71948C20.4694 7.03009 20.2949 7.45136 20.2949 7.89062C20.2949 8.32989 20.4694 8.75116 20.78 9.06177C21.0906 9.37238 21.5119 9.54688 21.9512 9.54688C22.3904 9.54688 22.8117 9.37238 23.1223 9.06177C23.4329 8.75116 23.6074 8.32989 23.6074 7.89062C23.6074 7.45136 23.4329 7.03009 23.1223 6.71948C22.8117 6.40887 22.3904 6.23438 21.9512 6.23438Z" fill="white" stroke="#E40000" stroke-width="0.5"/>
</svg>