<svg xmlns="http://www.w3.org/2000/svg" width="45" height="46" viewBox="0 0 45 46" fill="none">
  <g clip-path="url(#clip0_1406_57244)">
    <path d="M41.6165 27.2229C41.4249 27.1916 41.0391 27.1465 40.6621 27.06C40.0423 26.9184 39.5682 27.0763 39.2347 27.6438C39.0854 27.8982 38.8925 28.1262 38.712 28.3617C38.4146 28.7488 38.3798 29.156 38.6075 29.5857C38.7531 29.8613 38.9087 30.1319 39.0455 30.4126C39.6852 31.728 39.3542 33.2151 38.2217 34.1234C38.0276 34.2788 37.8285 34.4291 37.6244 34.572C36.4235 35.4076 34.873 35.2848 33.8202 34.2688C33.5962 34.052 33.3883 33.8203 33.1743 33.5935C32.8433 33.2427 32.4612 33.1237 31.9933 33.2941C31.6436 33.4219 31.284 33.5183 30.9306 33.6336C30.4913 33.7764 30.2312 34.0683 30.1727 34.5419C30.1254 34.929 30.0856 35.3211 29.9923 35.6982C29.7185 36.802 29.0229 37.5336 27.9464 37.8631C27.6988 37.9396 27.3839 37.9195 27.1338 37.8381C26.768 37.7191 26.58 37.3958 26.5576 37.0049C26.534 36.5928 26.7194 36.2821 27.0728 36.0766C27.1662 36.0227 27.2707 35.9876 27.374 35.9551C27.7859 35.8235 28.0174 35.5366 28.0846 35.1132C28.1356 34.7899 28.1679 34.463 28.2252 34.1397C28.4268 32.9997 29.0664 32.2129 30.1379 31.7995C30.5859 31.6266 31.0451 31.4787 31.508 31.3509C32.6268 31.0402 33.6273 31.2657 34.4772 32.0776C34.7025 32.2918 34.9028 32.5324 35.1231 32.7529C35.5736 33.2039 36.0228 33.2465 36.5417 32.8894C36.7085 32.7754 36.874 32.6564 37.0246 32.5223C37.3817 32.2041 37.4738 31.7731 37.2735 31.3334C37.1515 31.064 36.9997 30.8085 36.8628 30.5466C36.2481 29.364 36.3352 28.2364 37.1241 27.1627C37.3456 26.8621 37.5609 26.5551 37.7862 26.257C38.5042 25.3061 39.4487 24.8864 40.631 25.0442C40.9533 25.0868 41.2718 25.157 41.5929 25.2108C42.1454 25.3036 42.5698 25.063 42.7701 24.5331C43.1298 23.5772 43.1845 23.0297 41.9961 22.5348C41.853 22.4759 41.7124 22.407 41.5767 22.3331C40.4791 21.7393 39.9279 20.8122 39.9204 19.5581C39.9179 19.1672 39.9254 18.7776 39.9303 18.3867C39.9478 17.1289 40.5165 16.2143 41.6265 15.6418C41.8878 15.5065 42.1616 15.3925 42.4205 15.2521C42.9269 14.9778 43.0999 14.5556 42.9456 13.9956C42.9045 13.8452 42.851 13.6986 42.7988 13.552C42.5636 12.9043 42.1753 12.6838 41.4958 12.8029C41.13 12.8668 40.7641 12.9519 40.3945 12.9757C39.2832 13.0472 38.4047 12.6012 37.7501 11.7004C37.5211 11.3859 37.2946 11.0689 37.0706 10.7495C36.3526 9.72341 36.2754 8.64473 36.8267 7.5222C36.9574 7.2566 37.1154 7.00478 37.2448 6.73793C37.5049 6.20297 37.3892 5.74068 36.9163 5.3736C36.8914 5.35481 36.8641 5.33978 36.8404 5.31973C36.0129 4.63569 35.4715 4.77976 34.8879 5.48636C34.7498 5.65424 34.5954 5.81209 34.4349 5.95867C33.5837 6.73543 32.5981 6.96093 31.4968 6.64647C31.0501 6.51869 30.6083 6.37085 30.174 6.20423C29.0677 5.77952 28.4044 4.97896 28.219 3.79254C28.1704 3.48434 28.1455 3.17114 28.0846 2.86545C27.9688 2.2904 27.6241 2.00726 27.0455 1.99223C26.875 1.98722 26.7032 1.98596 26.5328 1.99223C25.9628 2.01728 25.6106 2.32548 25.5161 2.89176C25.4538 3.26134 25.4215 3.63594 25.3431 4.00176C25.1241 5.02031 24.5317 5.7507 23.576 6.14159C23.0322 6.36459 22.4659 6.54124 21.896 6.68406C20.8532 6.94465 19.931 6.66903 19.1483 5.93487C18.9093 5.71187 18.6978 5.4613 18.4651 5.22953C18.0208 4.78853 17.5579 4.75095 17.0427 5.10926C16.9531 5.1719 16.8672 5.2383 16.7801 5.30345C16.1542 5.78077 16.0646 6.18418 16.4304 6.87825C16.5611 7.12631 16.7092 7.36685 16.8262 7.62117C17.314 8.68733 17.2331 9.71465 16.5748 10.6856C16.3383 11.0339 16.082 11.3684 15.8331 11.7066C15.0628 12.7527 14.0274 13.1298 12.7668 12.9256C12.5217 12.8855 12.2815 12.8217 12.0363 12.7866C11.388 12.6914 11.0259 12.9382 10.7894 13.5608C10.3937 14.5994 10.6587 15.0792 11.5759 15.4426C12.0811 15.643 12.5578 15.9149 12.9174 16.3471C13.4089 16.9384 13.1364 17.7904 12.401 17.9808C12.1073 18.0572 11.821 18.0058 11.612 17.8129C11.2362 17.4659 10.7757 17.2842 10.3339 17.0612C9.30978 16.545 8.68134 15.7132 8.62907 14.5618C8.56436 13.1248 9.26747 11.3195 10.9711 10.8685C11.4801 10.7332 11.9841 10.747 12.493 10.8359C12.722 10.876 12.9485 10.9311 13.1775 10.97C13.5981 11.0426 13.9441 10.9086 14.2017 10.5653C14.4543 10.2283 14.7019 9.88879 14.9446 9.54551C15.181 9.21101 15.2121 8.8527 15.0292 8.48437C14.9048 8.23255 14.7654 7.9895 14.6347 7.74144C13.8744 6.29443 14.2066 4.771 15.4921 3.77876C16.0123 3.37785 16.5424 3.00827 17.2169 2.9093C18.2075 2.76397 19.0574 3.03834 19.7792 3.72614C20.0157 3.95165 20.2322 4.19845 20.4599 4.43273C20.7698 4.7522 21.1344 4.85744 21.5637 4.71462C21.9458 4.58683 22.3315 4.46906 22.7136 4.34128C23.0994 4.21223 23.3433 3.95039 23.4105 3.54197C23.4665 3.20371 23.5088 2.86294 23.5623 2.52343C23.7875 1.09646 24.9461 0.0566124 26.3859 0.0140163C26.8488 0.000235262 27.3267 -0.0147986 27.7747 0.0816689C29.0602 0.358543 29.9164 1.38461 30.0844 2.75645C30.113 2.98948 30.1491 3.22 30.1765 3.45302C30.23 3.90153 30.4664 4.19845 30.8933 4.34128C31.2753 4.46906 31.6598 4.59059 32.0406 4.72339C32.4525 4.86746 32.8059 4.76598 33.1083 4.46906C33.3311 4.25107 33.5364 4.01679 33.7555 3.79504C34.8294 2.71386 36.3737 2.56853 37.6232 3.42922C37.8285 3.57079 38.0326 3.71236 38.2267 3.86896C39.3417 4.76348 39.6827 6.24432 39.0692 7.53849C38.9286 7.83415 38.7668 8.1198 38.6125 8.40795C38.391 8.82013 38.4121 9.21352 38.6884 9.59312C38.9087 9.89505 39.1264 10.1995 39.3405 10.5064C39.6317 10.9249 40.0224 11.0652 40.5177 10.9662C40.8823 10.8936 41.2494 10.8184 41.619 10.7883C42.9008 10.6881 44.0581 11.3922 44.5547 12.5861C44.867 13.3378 45.1259 14.1033 44.933 14.9477C44.7214 15.8735 44.2124 16.5588 43.3849 17.0048C43.0987 17.1589 42.8012 17.2955 42.5101 17.4396C42.1069 17.6375 41.9102 17.9607 41.9165 18.4143C41.9214 18.8202 41.9165 19.2273 41.914 19.6333C41.9102 20.0517 42.1081 20.3511 42.4628 20.5428C42.7353 20.6906 43.024 20.8084 43.299 20.9512C44.6779 21.6628 45.2826 23.0861 44.8446 24.5769C44.7737 24.8162 44.7052 25.0567 44.6181 25.2898C44.1701 26.4812 43.0738 27.2354 41.6165 27.2279V27.2229Z" fill="white"/>
    <path d="M20.0251 43.2519C19.4191 43.2419 18.9151 43.0302 18.4571 42.6781C17.6246 42.0392 17.8362 42.1181 16.9402 42.504C16.7261 42.5967 16.5133 42.6944 16.2906 42.7571C15.9894 42.8423 15.8675 43.039 15.8426 43.3359C15.8227 43.5689 15.7866 43.8007 15.7455 44.0312C15.5514 45.1174 14.6454 45.9267 13.5478 45.9806C13.1148 46.0019 12.678 46.0069 12.2449 45.9818C11.156 45.9205 10.2526 45.0886 10.0734 44.0024C10.0323 43.7556 9.99871 43.5088 9.97133 43.2595C9.9452 43.0152 9.82324 42.8661 9.59426 42.7771C9.18982 42.6205 8.78912 42.4526 8.39339 42.2735C8.1669 42.1707 7.97775 42.1996 7.78984 42.3512C7.60815 42.4977 7.42148 42.6381 7.23108 42.7721C6.2654 43.4524 5.11057 43.3998 4.23075 42.6218C3.92836 42.3537 3.6384 42.068 3.3696 41.7661C2.59059 40.8866 2.52712 39.7114 3.19289 38.7455C3.28996 38.604 3.38329 38.4561 3.50151 38.3346C3.79147 38.0352 3.82133 37.7282 3.62471 37.3586C3.46543 37.058 3.34223 36.7335 3.23769 36.4077C3.14312 36.1108 2.95272 35.9818 2.66277 35.9492C2.4313 35.9242 2.20108 35.8916 1.9721 35.849C0.843402 35.6398 0.0506968 34.7152 0.0121193 33.5576C-0.000325003 33.183 -0.00156944 32.8071 0.00963047 32.4325C0.0457191 31.2561 0.905623 30.2351 2.0729 30.1486C2.83699 30.0923 3.27876 29.8129 3.44054 29.0599C3.48534 28.852 3.60978 28.659 3.70436 28.4623C3.81013 28.2431 3.79147 28.0439 3.63965 27.8522C3.48534 27.6568 3.33476 27.4576 3.19289 27.2521C2.53085 26.2912 2.60552 25.096 3.38578 24.2328C3.64711 23.9446 3.91964 23.664 4.20462 23.4009C5.03466 22.6342 6.23056 22.5502 7.16762 23.1842C7.38664 23.332 7.5957 23.4936 7.80228 23.659C7.99392 23.8118 8.18557 23.8269 8.40708 23.7279C8.80405 23.5525 9.20476 23.3859 9.6092 23.2268C9.83817 23.1366 9.95515 22.9837 9.97755 22.7394C9.99622 22.5377 10.0348 22.3373 10.0634 22.1368C10.2239 20.9867 11.0229 20.1511 12.169 20.0333C12.734 19.9757 13.3226 19.982 13.8826 20.0734C14.8893 20.2388 15.5887 21.0155 15.7592 22.0241C15.7779 22.1318 15.8177 22.2408 15.8127 22.3473C15.7791 22.9537 16.0915 23.2531 16.6515 23.3834C16.8891 23.4385 17.1206 23.555 17.3322 23.6803C17.6333 23.8594 17.8822 23.8168 18.1323 23.5901C18.2817 23.4548 18.4509 23.3408 18.6164 23.2243C19.5697 22.554 20.7556 22.6166 21.618 23.3946C21.9067 23.6552 22.183 23.9309 22.4455 24.2178C23.237 25.086 23.3166 26.2636 22.6596 27.2346C22.5202 27.4413 22.3696 27.6405 22.2141 27.8359C22.0635 28.0263 22.0336 28.2205 22.1295 28.446C22.3062 28.862 22.4767 29.2804 22.6434 29.7001C22.7193 29.8931 22.8438 30.0046 23.0541 30.0271C23.2694 30.0497 23.4834 30.0897 23.6987 30.1198C24.9568 30.3015 25.7906 31.2373 25.8204 32.5115C25.8292 32.871 25.8329 33.2306 25.8204 33.5901C25.7844 34.6964 25.0029 35.6247 23.9277 35.8402C23.6539 35.8953 23.3764 35.9254 23.1001 35.9668C22.8662 36.0018 22.7131 36.1171 22.626 36.3539C22.4754 36.7623 22.2975 37.1619 22.1257 37.5629C22.0386 37.7671 22.0448 37.9537 22.1855 38.1341C22.3385 38.3308 22.4891 38.53 22.631 38.7342C23.303 39.7039 23.2445 40.8678 22.4679 41.7561C22.2016 42.0605 21.9142 42.3486 21.6167 42.6218C21.1638 43.0377 20.62 43.2419 20.0301 43.2494L20.0251 43.2519ZM5.84976 41.2512C5.94807 41.1986 6.06256 41.1497 6.16336 41.0808C6.355 40.948 6.53296 40.7964 6.7246 40.6636C7.47126 40.1449 8.26521 40.0547 9.10645 40.4118C9.53453 40.5934 9.96262 40.7738 10.3932 40.9492C11.2942 41.3176 11.7932 41.9966 11.9326 42.955C11.9637 43.1718 11.9935 43.3872 12.0271 43.604C12.0657 43.8558 12.2126 43.9949 12.4664 43.9986C12.7614 44.0036 13.0563 44.0036 13.3512 43.9986C13.6287 43.9936 13.7743 43.842 13.8054 43.5664C13.8278 43.3647 13.8627 43.1642 13.8913 42.9638C14.0332 41.9853 14.5508 41.3013 15.4668 40.9317C15.8836 40.7638 16.3005 40.5959 16.7149 40.4218C17.5723 40.061 18.3787 40.1487 19.1366 40.6899C19.3394 40.834 19.5336 40.9893 19.7352 41.1359C19.9405 41.2862 20.1433 41.2725 20.325 41.0996C20.5167 40.9179 20.7058 40.7325 20.8838 40.5358C21.1426 40.2502 21.1488 40.1036 20.9323 39.7929C20.7892 39.5887 20.6312 39.3957 20.493 39.189C20.004 38.4611 19.9268 37.6856 20.2553 36.8725C20.4482 36.3965 20.6473 35.9229 20.8502 35.4506C21.175 34.6964 21.7387 34.2253 22.5364 34.0512C22.8388 33.9848 23.1462 33.9422 23.4523 33.8946C23.7086 33.8545 23.8331 33.6966 23.8418 33.4486C23.8505 33.1679 23.8555 32.8861 23.8393 32.6054C23.8206 32.2809 23.7074 32.1582 23.395 32.103C23.1661 32.0617 22.9346 32.0404 22.7044 32.0028C21.786 31.8512 21.1563 31.3313 20.8016 30.4706C20.6237 30.0384 20.4582 29.6011 20.2752 29.1714C19.9169 28.3233 20.0127 27.5265 20.5266 26.7748C20.6585 26.5818 20.8104 26.4027 20.9423 26.211C21.1464 25.9141 21.1426 25.7612 20.9099 25.5057C20.732 25.3102 20.544 25.1223 20.3474 24.9456C20.0961 24.7189 19.9741 24.7164 19.6879 24.9156C19.4713 25.0672 19.2685 25.2388 19.0495 25.3854C18.324 25.8727 17.5537 25.9467 16.7473 25.6147C16.2881 25.4267 15.8301 25.2376 15.3759 25.0384C14.6156 24.7039 14.1228 24.1376 13.951 23.3107C13.8901 23.0213 13.844 22.7281 13.8067 22.4337C13.7706 22.1506 13.6076 22.0178 13.3413 22.0103C13.0476 22.0028 12.7526 22.0103 12.4577 22.0216C12.2051 22.0316 12.0607 22.1719 12.0246 22.425C11.9935 22.6417 11.9637 22.8572 11.9313 23.0739C11.7894 24.0348 11.2805 24.7064 10.3795 25.0697C9.99124 25.2263 9.59924 25.3729 9.21969 25.5495C8.28263 25.9855 7.41402 25.8702 6.59642 25.2538C6.4222 25.1223 6.25047 24.9882 6.07376 24.863C5.88336 24.7277 5.69047 24.7402 5.52248 24.9005C5.29848 25.116 5.07946 25.3378 4.8679 25.567C4.69368 25.7562 4.70737 25.9604 4.85546 26.1621C5.02097 26.3876 5.19643 26.6081 5.3495 26.8424C5.81865 27.5578 5.90203 28.3208 5.58221 29.1176C5.38559 29.6087 5.1815 30.0985 4.9687 30.5821C4.62275 31.3701 4.01173 31.8287 3.17796 31.9928C2.95023 32.0379 2.71752 32.0592 2.4873 32.0943C2.11024 32.1532 2.00073 32.2634 1.98081 32.6367C1.96837 32.8698 1.97086 33.1053 1.9833 33.3396C2.00446 33.7555 2.08037 33.8344 2.50348 33.9146C2.6553 33.9434 2.81085 33.9572 2.96392 33.9785C3.98933 34.1226 4.70613 34.6563 5.06577 35.6535C5.20266 36.0344 5.35945 36.409 5.52496 36.7773C5.92567 37.6719 5.8199 38.5087 5.2599 39.298C5.12426 39.4884 4.9799 39.6726 4.84177 39.8605C4.72106 40.0272 4.67377 40.2213 4.81315 40.3792C5.05955 40.6573 5.33457 40.9117 5.60585 41.1672C5.65687 41.2148 5.74896 41.2198 5.84478 41.2537L5.84976 41.2512Z" fill="white"/>
    <path d="M17.9018 18.9758C17.8731 14.4957 21.1696 10.6846 25.5724 10.0732C30.4531 9.39543 34.9866 12.8495 35.6636 17.7618C36.3356 22.6416 32.9607 27.1818 28.1111 27.8821C27.3955 27.9849 26.6564 27.9723 25.9308 27.9485C25.3012 27.9285 24.9191 27.4587 24.9577 26.8686C24.995 26.3073 25.4318 25.959 26.0503 25.9615C26.6228 25.964 27.2014 25.9866 27.7664 25.9127C30.7493 25.5218 33.1498 23.1753 33.6451 20.2036C34.2661 16.4777 31.9664 13.0073 28.3127 12.1592C24.4064 11.2521 20.4541 13.9933 19.9327 17.9923C19.8568 18.5761 19.8816 19.175 19.8829 19.7663C19.8841 20.4591 19.4374 20.9127 18.7841 20.8513C18.3162 20.8074 17.9553 20.4403 17.9067 19.9116C17.8781 19.6022 17.9018 19.2877 17.9018 18.9758Z" fill="white"/>
    <path d="M7.92383 32.9998C7.92383 30.2461 10.1763 27.9797 12.9016 27.9922C15.6207 28.0048 17.8395 30.2335 17.8631 32.976C17.8868 35.7147 15.6368 37.9935 12.9016 37.9998C10.1663 38.0061 7.92383 35.7535 7.92383 32.9985V32.9998ZM12.8966 30.0093C11.2427 30.0055 9.89999 31.3498 9.90497 33.0048C9.90995 34.6498 11.2813 36.0216 12.9065 36.0066C14.538 35.9915 15.8509 34.6635 15.8596 33.0186C15.8683 31.3435 14.5579 30.013 12.8966 30.0093Z" fill="white"/>
  </g>
  <defs>
    <clipPath id="clip0_1406_57244">
      <rect width="45" height="46" fill="white"/>
    </clipPath>
  </defs>
</svg>