<svg width="102" height="85" viewBox="0 0 102 85" fill="none" xmlns="http://www.w3.org/2000/svg">
<path d="M50.5804 14.0337C63.7002 -8.41364 95.6211 -2.55958 100.537 21.9822C104.125 39.8577 89.8295 53.2309 76.8934 63.9876C65.7184 73.286 57.9106 79.67 53.47 83.1395C50.5865 85.3964 48.9397 83.65 46.7234 81.9037C33.6588 71.617 19.7003 61.2839 8.53958 49.1116C4.64589 44.8705 10.1803 40.3276 13.3149 43.6985C24.8551 56.1029 37.6933 65.7339 50.6477 75.9974C50.8028 76.125 50.96 76.125 51.1191 75.9974C58.8412 69.8281 66.4674 63.5563 73.9976 57.182C84.9563 47.899 97.3965 36.3592 92.7987 20.8683C89.7009 10.4249 77.7505 3.74703 66.8469 8.43492C61.4472 10.7615 57.5413 15.49 55.2393 20.6826C54.1557 23.1252 53.0782 27.4243 49.007 25.9101C47.3173 25.2777 46.9928 23.8214 46.4663 22.2781C39.9278 3.28868 14.8025 0.962139 7.95797 21.1293C6.56824 25.2254 -0.490587 23.6996 1.42565 17.9789C4.68263 8.26086 13.5046 1.11879 24.3286 0.120875C35.6668 -0.929259 45.0337 4.95961 50.2559 14.0279C50.271 14.0561 50.2939 14.0799 50.3221 14.0967C50.3504 14.1135 50.3829 14.1227 50.4163 14.1233C50.4497 14.1239 50.4826 14.1159 50.5115 14.1001C50.5404 14.0843 50.5642 14.0613 50.5804 14.0337Z" fill="white"/>
<path d="M51.2942 19.643C57.8937 8.02622 81.1466 -1.63665 91.0003 7.5001C95.888 12.0323 101.452 24.7246 100.958 31.5902C100.34 40.1709 87.0042 52.3051 81.6274 58.5524C73.06 68.508 61.006 72.125 51.3447 80.5996C51.2752 80.6603 51.2056 80.6603 51.136 80.5996C46.9483 76.9267 42.7432 73.2286 38.5206 69.5051C33.0482 64.6787 22.8805 64.119 18.1124 58.5524C12.6443 52.1669 3.26272 48.1595 0.5 31.5902C-2.26265 15.0213 7.36819 9.98159 9.82672 6.08293C22.0003 -3 43.4051 5.86629 51.1817 19.643C51.1874 19.6532 51.1957 19.6616 51.2055 19.6674C51.2154 19.6732 51.2266 19.6763 51.2379 19.6763C51.2493 19.6763 51.2605 19.6732 51.2703 19.6674C51.2802 19.6616 51.2884 19.6532 51.2942 19.643Z" fill="white"/>
</svg>
