<svg width="23" height="21" viewBox="0 0 23 21" fill="none" xmlns="http://www.w3.org/2000/svg">
<path d="M11.4866 20.9997C7.98698 20.9997 4.48655 20.9997 0.986912 20.9997C0.827185 20.9997 0.666658 21.0037 0.508528 20.9877C0.151536 20.9515 -0.0289563 20.7699 0.0037879 20.4058C0.0237539 20.176 0.106812 19.9357 0.218622 19.7324C0.870311 18.5511 1.53877 17.3786 2.20324 16.2038C5.08952 11.0976 7.9766 5.99145 10.8637 0.886099C10.9627 0.711715 11.0609 0.537331 11.1624 0.364555C11.4547 -0.130471 11.83 -0.120827 12.1144 0.39027C12.5752 1.2196 13.0336 2.04973 13.4936 2.87906C16.1954 7.75136 18.898 12.6245 21.5998 17.4968C22.0079 18.2329 22.4128 18.9714 22.8281 19.7027C22.9663 19.9462 23.0246 20.1969 22.987 20.4717C22.9471 20.7602 22.753 20.9547 22.4639 20.9869C22.3194 21.0029 22.1716 20.9989 22.0255 20.9989C18.5122 20.9989 14.999 20.9989 11.4858 20.9989L11.4866 20.9997ZM13.4872 6.69943C13.5032 6.40451 13.4081 6.1578 13.1813 5.94966C12.1926 5.0456 10.9795 5.24329 10.1681 6.03002C9.98997 6.2028 9.88455 6.41977 9.90292 6.67773C9.92688 7.01123 9.95882 7.34393 9.98678 7.67743C10.0866 8.8499 10.1856 10.0216 10.2871 11.194C10.3597 12.0338 10.422 12.8744 10.5139 13.7118C10.585 14.3635 11.0961 14.8103 11.7262 14.8167C12.3587 14.824 12.8723 14.3972 12.9601 13.7407C13.0352 13.1854 13.0615 12.6229 13.1039 12.0627C13.1773 11.1024 13.2492 10.1421 13.3179 9.18179C13.377 8.35487 13.4297 7.52715 13.4856 6.70023L13.4872 6.69943ZM11.7598 15.6477C10.7798 15.6469 10.0075 16.4223 10.0147 17.3987C10.0219 18.3735 10.8094 19.1586 11.7717 19.1514C12.7093 19.1434 13.4968 18.351 13.504 17.4076C13.5112 16.436 12.7317 15.6493 11.7606 15.6477H11.7598Z" fill="white"/>
</svg>
