<svg width="2" height="12" viewBox="0 0 2 12" fill="none" xmlns="http://www.w3.org/2000/svg">
<path d="M1.67188 12H0.375V3.4375H1.67188V12ZM0.265625 1.11719C0.265625 0.820312 0.338542 0.604167 0.484375 0.46875C0.630208 0.328125 0.8125 0.257812 1.03125 0.257812C1.23958 0.257812 1.41927 0.328125 1.57031 0.46875C1.72135 0.609375 1.79688 0.825521 1.79688 1.11719C1.79688 1.40885 1.72135 1.6276 1.57031 1.77344C1.41927 1.91406 1.23958 1.98438 1.03125 1.98438C0.8125 1.98438 0.630208 1.91406 0.484375 1.77344C0.338542 1.6276 0.265625 1.40885 0.265625 1.11719Z" fill="#202020"/>
<path d="M1.67188 12H0.375V3.4375H1.67188V12ZM0.265625 1.11719C0.265625 0.820312 0.338542 0.604167 0.484375 0.46875C0.630208 0.328125 0.8125 0.257812 1.03125 0.257812C1.23958 0.257812 1.41927 0.328125 1.57031 0.46875C1.72135 0.609375 1.79688 0.825521 1.79688 1.11719C1.79688 1.40885 1.72135 1.6276 1.57031 1.77344C1.41927 1.91406 1.23958 1.98438 1.03125 1.98438C0.8125 1.98438 0.630208 1.91406 0.484375 1.77344C0.338542 1.6276 0.265625 1.40885 0.265625 1.11719Z" fill="black" fill-opacity="0.2"/>
<path d="M1.67188 12H0.375V3.4375H1.67188V12ZM0.265625 1.11719C0.265625 0.820312 0.338542 0.604167 0.484375 0.46875C0.630208 0.328125 0.8125 0.257812 1.03125 0.257812C1.23958 0.257812 1.41927 0.328125 1.57031 0.46875C1.72135 0.609375 1.79688 0.825521 1.79688 1.11719C1.79688 1.40885 1.72135 1.6276 1.57031 1.77344C1.41927 1.91406 1.23958 1.98438 1.03125 1.98438C0.8125 1.98438 0.630208 1.91406 0.484375 1.77344C0.338542 1.6276 0.265625 1.40885 0.265625 1.11719Z" fill="black" fill-opacity="0.2"/>
</svg>
