<svg xmlns="http://www.w3.org/2000/svg" width="23" height="22" viewBox="0 0 23 22" fill="none">
  <path d="M13.0519 2.26463C14.729 -0.604814 18.8094 0.143511 19.4379 3.28069C19.8965 5.56572 18.0691 7.27523 16.4155 8.65025C14.987 9.83887 13.9889 10.6549 13.4213 11.0984C13.0527 11.3869 12.8422 11.1637 12.5589 10.9405C10.8888 9.62552 9.10448 8.30464 7.6778 6.74865C7.18007 6.20651 7.88754 5.62579 8.28823 6.05669C9.76342 7.64234 11.4045 8.87348 13.0605 10.1855C13.0803 10.2018 13.1004 10.2018 13.1208 10.1855C14.1079 9.39684 15.0827 8.59512 16.0453 7.78029C17.4462 6.59365 19.0364 5.11851 18.4487 3.1383C18.0527 1.80333 16.525 0.949686 15.1312 1.54894C14.441 1.84634 13.9417 2.45079 13.6474 3.11457C13.5089 3.4268 13.3712 3.97636 12.8508 3.78279C12.6348 3.70195 12.5933 3.5158 12.526 3.31852C11.6902 0.891096 8.4784 0.593694 7.60346 3.17167C7.42581 3.69528 6.52347 3.50022 6.76843 2.76896C7.18477 1.52669 8.31249 0.613719 9.69612 0.486155C11.1455 0.351916 12.3429 1.10469 13.0104 2.26389C13.0123 2.2675 13.0153 2.27054 13.0189 2.27269C13.0225 2.27484 13.0266 2.27601 13.0309 2.27609C13.0352 2.27616 13.0394 2.27514 13.0431 2.27312C13.0468 2.2711 13.0498 2.26817 13.0519 2.26463Z" fill="#E40000"/>
  <path d="M12.7885 3.13231C13.5925 1.71723 16.6288 0.367516 17.8291 1.4805C18.4245 2.03257 18.8985 3.75131 18.8383 4.58764C18.763 5.63289 17.1385 7.111 16.4835 7.87201C15.4399 9.08473 13.9716 9.52533 12.7947 10.5577C12.7862 10.565 12.7778 10.565 12.7693 10.5577C12.2592 10.1102 11.7469 9.65976 11.2326 9.20619C10.5659 8.61827 9.32738 8.55009 8.74656 7.872C8.08047 7.09416 7.06454 6.52642 6.728 4.50805C6.39147 2.48973 7.43777 1.95542 7.73725 1.48051C8.76776 -0.154588 11.8275 1.45412 12.7748 3.13231C12.7755 3.13354 12.7765 3.13457 12.7777 3.13528C12.779 3.13599 12.7803 3.13636 12.7817 3.13636C12.7831 3.13636 12.7844 3.13599 12.7856 3.13528C12.7868 3.13457 12.7878 3.13354 12.7885 3.13231Z" fill="#E40000"/>
  <path d="M4.3682 19.3789C4.07769 20.0148 3.61061 20.1959 2.91867 20.1967C2.14901 20.1972 1.37885 20.1977 0.608183 20.1982C0.24599 20.1982 0.00452741 20.0928 0.00377285 19.6995C-0.00125762 18.1013 -0.00125762 15.4696 0.00377285 11.8043C0.00452741 11.3647 0.171288 11.2336 0.603656 11.2344C1.40803 11.2354 2.21164 11.2356 3.0145 11.2351C3.74719 11.2351 4.04524 11.4837 4.4014 12.0916C4.41448 12.1143 4.43435 12.1257 4.46101 12.1257C5.54155 12.1257 6.62059 12.1254 7.69811 12.1249C8.17047 12.1249 8.66069 12.2697 9.16877 12.5592C9.91982 12.9867 10.6716 13.4129 11.4242 13.8378C11.5172 13.8904 11.6168 13.9171 11.723 13.9181C12.5641 13.9272 13.4044 13.9298 14.244 13.9257C14.6671 13.9232 14.9774 13.9565 15.1751 14.0258C15.9825 14.3062 16.4285 15.1156 16.3462 15.9744C16.3432 16.0062 16.3568 16.0171 16.387 16.0069C17.5782 15.6012 18.7666 15.193 19.9523 14.7822C20.5414 14.5775 20.9571 14.475 21.1996 14.4745C22.7978 14.4707 23.4324 16.4473 22.3028 17.4697C22.1448 17.6127 21.8963 17.759 21.5573 17.9085C19.0602 19.0116 16.5638 20.1156 14.0682 21.2206C13.4183 21.5086 12.9504 21.6931 12.6647 21.7739C10.9322 22.265 9.46003 21.9232 7.94184 21.0342C7.32812 20.6744 6.71692 20.3109 6.10824 19.9435C5.5325 19.5964 5.04807 19.4357 4.42555 19.3478C4.39889 19.3443 4.37977 19.3546 4.3682 19.3789ZM3.56609 12.5592C3.56534 12.2803 3.30803 12.1196 3.05601 12.1196C2.35375 12.1186 1.64798 12.1221 0.938685 12.1302C0.907999 12.1307 0.892655 12.1464 0.892655 12.1772L0.88662 19.2523C0.88662 19.2852 0.902968 19.3018 0.935666 19.3023C1.6349 19.3119 2.33388 19.3125 3.03261 19.3039C3.25068 19.3008 3.48686 19.2349 3.54949 19.0234C3.63249 18.7377 3.56609 18.117 3.56609 17.835C3.5676 16.0762 3.5676 14.3176 3.56609 12.5592ZM12.1735 14.8117C11.6143 14.8466 11.2906 14.7943 10.7805 14.507C10.0632 14.1028 9.34257 13.7044 8.61869 13.3118C8.25599 13.1148 7.86739 13.0162 7.45288 13.0162C6.4659 13.0157 5.48521 13.016 4.51081 13.017C4.50061 13.017 4.49082 13.0211 4.4836 13.0283C4.47639 13.0356 4.47233 13.0454 4.47233 13.0556V18.3974C4.47228 18.4149 4.47885 18.4318 4.49073 18.4447C4.50261 18.4576 4.51893 18.4656 4.53647 18.4671C6.41308 18.6278 7.69057 20.0815 9.35666 20.7568C10.5957 21.259 11.846 21.2292 13.1076 20.6673C15.8688 19.4365 18.6333 18.2137 21.4011 16.9991C22.4771 16.5269 21.8991 15.0747 20.9265 15.4074C18.9409 16.0855 16.975 16.7654 15.0287 17.447C14.9149 17.4866 14.7952 17.5069 14.6749 17.5069C13.1944 17.5069 11.69 17.5069 10.1618 17.5069C9.40268 17.5069 9.41627 16.6216 10.075 16.6201C11.5016 16.6176 12.9283 16.6161 14.3549 16.6156C14.5893 16.615 14.7611 16.5956 14.8703 16.5572C15.6052 16.2972 15.6732 15.243 14.9654 14.9178C14.8235 14.8526 14.5883 14.8158 14.2598 14.8072C13.3222 14.7819 12.6267 14.7834 12.1735 14.8117Z" fill="#202020"/>
</svg>