<svg width="23" height="22" viewBox="0 0 23 22" fill="none" xmlns="http://www.w3.org/2000/svg">
<path d="M13.0519 1.79393C14.729 -1.07552 18.8094 -0.327192 19.4379 2.80999C19.8965 5.09502 18.0691 6.80452 16.4155 8.17954C14.987 9.36816 13.9889 10.1842 13.4213 10.6277C13.0527 10.9162 12.8422 10.693 12.5589 10.4698C10.8888 9.15482 9.10448 7.83393 7.6778 6.27795C7.18007 5.7358 7.88754 5.15509 8.28823 5.58599C9.76342 7.17164 11.4045 8.40278 13.0605 9.71476C13.0803 9.73108 13.1004 9.73108 13.1208 9.71476C14.1079 8.92614 15.0827 8.12441 16.0453 7.30959C17.4462 6.12295 19.0364 4.6478 18.4487 2.66759C18.0527 1.33262 16.525 0.478983 15.1312 1.07824C14.441 1.37564 13.9417 1.98008 13.6474 2.64386C13.5089 2.9561 13.3712 3.50566 12.8508 3.31209C12.6348 3.23125 12.5933 3.0451 12.526 2.84782C11.6902 0.420393 8.4784 0.12299 7.60346 2.70097C7.42581 3.22457 6.52347 3.02952 6.76843 2.29825C7.18477 1.05599 8.31249 0.143015 9.69612 0.0154515C11.1455 -0.118787 12.3429 0.633988 13.0104 1.79319C13.0123 1.79679 13.0153 1.79984 13.0189 1.80198C13.0225 1.80413 13.0266 1.80531 13.0309 1.80538C13.0352 1.80546 13.0394 1.80443 13.0431 1.80242C13.0468 1.8004 13.0498 1.79746 13.0519 1.79393Z" fill="#EE0000"/>
<path d="M12.7885 2.66161C13.5925 1.24652 16.6288 -0.103187 17.8291 1.00979C18.4245 1.56187 18.8985 3.28061 18.8383 4.11693C18.763 5.16219 17.1385 6.6403 16.4835 7.4013C15.4399 8.61403 13.9716 9.05463 12.7947 10.087C12.7862 10.0943 12.7778 10.0943 12.7693 10.087C12.2592 9.63954 11.7469 9.18905 11.2326 8.73549C10.5659 8.14756 9.32738 8.07939 8.74656 7.40129C8.08047 6.62346 7.06454 6.05571 6.728 4.03734C6.39147 2.01902 7.43777 1.48471 7.73725 1.0098C8.76776 -0.625291 11.8275 0.983413 12.7748 2.66161C12.7755 2.66284 12.7765 2.66386 12.7777 2.66458C12.779 2.66529 12.7803 2.66566 12.7817 2.66566C12.7831 2.66566 12.7844 2.66529 12.7856 2.66458C12.7868 2.66386 12.7878 2.66284 12.7885 2.66161Z" fill="#EE0000"/>
<path d="M4.3682 18.9082C4.07769 19.5441 3.61061 19.7252 2.91867 19.726C2.14901 19.7265 1.37885 19.727 0.608183 19.7275C0.24599 19.7275 0.00452741 19.6221 0.00377285 19.2288C-0.00125762 17.6306 -0.00125762 14.9989 0.00377285 11.3336C0.00452741 10.894 0.171288 10.7629 0.603656 10.7637C1.40803 10.7647 2.21164 10.7649 3.0145 10.7644C3.74719 10.7644 4.04524 11.013 4.4014 11.6209C4.41448 11.6436 4.43435 11.655 4.46101 11.655C5.54155 11.655 6.62059 11.6547 7.69811 11.6542C8.17047 11.6542 8.66069 11.799 9.16877 12.0885C9.91982 12.516 10.6716 12.9422 11.4242 13.3671C11.5172 13.4197 11.6168 13.4464 11.723 13.4474C12.5641 13.4565 13.4044 13.4591 14.244 13.455C14.6671 13.4525 14.9774 13.4858 15.1751 13.5551C15.9825 13.8355 16.4285 14.6449 16.3462 15.5037C16.3432 15.5355 16.3568 15.5464 16.387 15.5362C17.5782 15.1305 18.7666 14.7222 19.9523 14.3115C20.5414 14.1068 20.9571 14.0043 21.1996 14.0037C22.7978 14 23.4324 15.9766 22.3028 16.999C22.1448 17.142 21.8963 17.2883 21.5573 17.4378C19.0602 18.5409 16.5638 19.6449 14.0682 20.7499C13.4183 21.0379 12.9504 21.2223 12.6647 21.3032C10.9322 21.7943 9.46003 21.4525 7.94184 20.5635C7.32812 20.2037 6.71692 19.8402 6.10824 19.4728C5.5325 19.1257 5.04807 18.965 4.42555 18.8771C4.39889 18.8736 4.37977 18.8839 4.3682 18.9082ZM3.56609 12.0885C3.56534 11.8096 3.30803 11.6489 3.05601 11.6489C2.35375 11.6479 1.64798 11.6514 0.938685 11.6595C0.907999 11.66 0.892655 11.6757 0.892655 11.7065L0.88662 18.7816C0.88662 18.8145 0.902968 18.8311 0.935666 18.8316C1.6349 18.8412 2.33388 18.8417 3.03261 18.8332C3.25068 18.8301 3.48686 18.7642 3.54949 18.5527C3.63249 18.267 3.56609 17.6463 3.56609 17.3643C3.5676 15.6055 3.5676 13.8469 3.56609 12.0885ZM12.1735 14.341C11.6143 14.3759 11.2906 14.3236 10.7805 14.0363C10.0632 13.6321 9.34257 13.2337 8.61869 12.8411C8.25599 12.6441 7.86739 12.5455 7.45288 12.5455C6.4659 12.545 5.48521 12.5453 4.51081 12.5463C4.50061 12.5463 4.49082 12.5504 4.4836 12.5576C4.47639 12.5649 4.47233 12.5747 4.47233 12.5849V17.9267C4.47228 17.9442 4.47885 17.9611 4.49073 17.974C4.50261 17.9869 4.51893 17.9949 4.53647 17.9964C6.41308 18.1571 7.69057 19.6108 9.35666 20.2861C10.5957 20.7883 11.846 20.7585 13.1076 20.1966C15.8688 18.9658 18.6333 17.743 21.4011 16.5284C22.4771 16.0562 21.8991 14.604 20.9265 14.9367C18.9409 15.6148 16.975 16.2947 15.0287 16.9763C14.9149 17.0159 14.7952 17.0362 14.6749 17.0362C13.1944 17.0362 11.69 17.0362 10.1618 17.0362C9.40268 17.0362 9.41627 16.1509 10.075 16.1494C11.5016 16.1469 12.9283 16.1454 14.3549 16.1448C14.5893 16.1443 14.7611 16.1249 14.8703 16.0865C15.6052 15.8265 15.6732 14.7723 14.9654 14.4471C14.8235 14.3819 14.5883 14.3451 14.2598 14.3365C13.3222 14.3112 12.6267 14.3127 12.1735 14.341Z" fill="#202020"/>
</svg>
