<svg xmlns="http://www.w3.org/2000/svg" width="104" height="104" viewBox="0 0 104 104" fill="none">
  <path d="M52 102C79.6142 102 102 79.6142 102 52C102 24.3858 79.6142 2 52 2C24.3858 2 2 24.3858 2 52C2 79.6142 24.3858 102 52 102Z" fill="white" stroke="#E40000" stroke-width="3"/>
  <path d="M52.0013 101.344C79.2522 101.344 101.343 79.2532 101.343 52.0023C101.343 24.7514 79.2522 2.66016 52.0013 2.66016C24.7504 2.66016 2.65918 24.7514 2.65918 52.0023C2.65918 79.2532 24.7504 101.344 52.0013 101.344Z" stroke="#E40000" stroke-width="2"/>
  <path d="M34.2412 50.7009L46.2407 62.7795L69.287 40.8184" stroke="#E40000" stroke-width="5"/>
</svg>