<svg width="48" height="16" viewBox="0 0 48 16" fill="none" xmlns="http://www.w3.org/2000/svg">
<path fill-rule="evenodd" clip-rule="evenodd" d="M7.59857 2.86133C5.54394 2.85893 3.87023 4.22477 3.86731 5.9062C3.86585 6.7324 3.87803 8.77232 3.87803 8.79287C3.87871 8.88893 3.97268 8.96659 4.08857 8.96675H4.08964C4.11567 8.96675 6.6795 8.95827 7.58843 8.95931C9.64316 8.96171 11.3171 7.5958 11.3199 5.91452C11.3226 4.23332 9.65319 2.86357 7.59857 2.86133ZM7.58892 8.61004C6.83292 8.60924 4.93405 8.61483 4.29872 8.61675C4.2958 8.1028 4.28771 6.58932 4.28878 5.90652C4.29132 4.41808 5.77592 3.20853 7.59808 3.21061C9.42023 3.21277 10.9007 4.42552 10.8981 5.91412C10.8957 7.40272 9.41127 8.61212 7.58892 8.61004Z" fill="#DB0011"/>
<path fill-rule="evenodd" clip-rule="evenodd" d="M7.5979 1.48438C4.64155 1.48094 2.23291 3.46535 2.22871 5.90764C2.22696 6.85365 2.23729 8.87437 2.24197 9.754C2.24139 9.7588 2.24022 9.76336 2.24022 9.76808L2.23339 13.8257C2.23339 13.9236 2.32784 14.0027 2.44471 14.0029C2.56149 14.0029 2.65613 13.9239 2.65623 13.8262L2.66208 10.3536C3.46691 10.3511 6.43135 10.3421 7.58348 10.3434C10.5402 10.3467 12.9491 8.36249 12.9531 5.91988C12.957 3.4775 10.5548 1.48766 7.5981 1.48438M7.58396 9.98962C6.43466 9.98826 3.48192 9.99722 2.66627 9.99978C2.66237 9.33314 2.6497 6.95755 2.65155 5.9082C2.65516 3.66098 4.87412 1.83494 7.59761 1.83805C10.3212 1.84125 12.5338 3.67218 12.5302 5.91948C12.5265 8.16678 10.3076 9.9925 7.58396 9.98962Z" fill="#DB0011"/>
<mask id="mask0_1375_42859" style="mask-type:luminance" maskUnits="userSpaceOnUse" x="0" y="0" width="15" height="16">
<path d="M0.59375 0H14.6963V15.3786H0.59375V0Z" fill="white"/>
</mask>
<g mask="url(#mask0_1375_42859)">
<path fill-rule="evenodd" clip-rule="evenodd" d="M7.65469 5.18888e-06C3.7666 -0.0042338 0.599417 2.58931 0.593958 5.78174C0.591326 7.3944 0.614525 11.3774 0.61472 11.4162L0.610918 13.8116C0.610334 14.2174 0.938329 15.377 2.40481 15.3787C3.97441 15.3805 4.3295 14.2669 4.33009 13.8766C4.33058 13.5926 4.35563 12.0856 4.3642 11.5838C5.45469 11.5806 6.54519 11.5792 7.63568 11.5793C11.5237 11.5838 14.6911 8.99009 14.6964 5.79774C14.7017 2.6053 11.5429 0.00448412 7.65469 5.18888e-06ZM7.63617 11.2248C6.97657 11.2239 5.82123 11.2256 4.20152 11.2296C4.18144 11.2296 4.16166 11.2319 4.14245 11.2367L4.09352 11.2485C4.04955 11.2594 4.01096 11.2815 3.9834 11.3117C3.95583 11.3418 3.94073 11.3784 3.94029 11.4161C3.93883 11.5024 3.90423 13.5336 3.90345 13.876C3.90345 13.8876 3.83736 15.0256 2.40529 15.024C1.09399 15.0224 1.03717 13.824 1.03717 13.8118L1.04126 11.4156C1.04097 11.3754 1.01777 7.39352 1.0205 5.78198C1.02527 2.7851 4.00112 0.350481 7.65391 0.35448C11.307 0.358879 14.2746 2.80029 14.2698 5.7971C14.2648 8.7939 11.2889 11.2289 7.63617 11.2248Z" fill="#DB0011"/>
</g>
<path fill-rule="evenodd" clip-rule="evenodd" d="M19.8306 4.93172L18.5572 4.93028L18.5534 7.18366L19.554 7.1847C20.5747 7.1859 21.5653 7.05305 21.567 6.01442C21.5685 5.1012 20.7706 4.93284 19.8306 4.93172ZM21.2208 7.63915C20.8363 7.75576 20.3716 7.79727 19.8966 7.79671L18.5525 7.79511L18.5482 10.3837L17.5982 10.3825L17.6079 4.32594L19.8619 4.3285C20.4884 4.32938 21.1353 4.33834 21.6807 4.63227C22.2764 4.95123 22.5583 5.50446 22.5573 6.07408C22.556 6.81127 22.0602 7.38849 21.2209 7.63915M25.8582 8.25572C25.0699 8.25492 23.7759 8.32874 23.7744 9.19158C23.7735 9.71089 24.3086 9.98819 24.8951 9.98899C26.1784 9.99027 26.3114 9.12743 26.3128 8.27308C26.1006 8.25604 25.9996 8.25604 25.8582 8.25572ZM26.4915 10.3928C26.4509 10.2166 26.4111 9.97355 26.4011 9.79775C25.9759 10.3083 25.4097 10.4835 24.672 10.4827C23.7218 10.4816 22.8835 10.0869 22.885 9.22413C22.8869 7.95923 24.5653 7.81031 25.8082 7.81167C25.9768 7.81253 26.1454 7.81834 26.3135 7.8291L26.3138 7.57772C26.3151 6.92436 26.0326 6.55557 25.1938 6.55461C24.5673 6.55389 24.1928 6.746 24.1314 7.29875L23.2624 7.29779C23.3143 6.37665 24.2144 6.076 25.1744 6.07712C26.478 6.0784 27.1141 6.48966 27.1124 7.59556L27.1095 9.15359C27.1085 9.70649 27.1989 10.2006 27.2695 10.3935L26.4915 10.3928ZM30.1668 11.9884L29.2776 11.9873L30.119 10.3885L27.953 6.1639L28.9638 6.1651L30.5648 9.62667L32.1674 6.1687L33.0668 6.16974L30.1668 11.9884ZM41.0435 10.4091L41.0525 4.95587L38.4665 10.4062L37.5973 10.4054L35.019 4.94067L35.0101 10.4023L34.1509 10.4013L34.1609 4.3449L35.677 4.3465L38.0739 9.46767L40.4269 4.3521L41.943 4.35386L41.9329 10.4103L41.0435 10.4091ZM45.7786 6.61147C44.8387 6.61044 44.3726 7.24636 44.2908 7.95027L47.1206 7.95339C47.1319 7.25804 46.7084 6.61251 45.7786 6.61147ZM44.2697 8.43608L44.2695 8.51982C44.2681 9.29899 44.7725 10.0114 45.8032 10.0125C46.5308 10.0133 47.0066 9.64531 47.1187 9.05073L47.9678 9.05177C47.764 10.0483 46.894 10.5081 45.7319 10.5068C44.1452 10.5049 43.3783 9.62451 43.3804 8.36777C43.3824 7.10304 44.1524 6.1072 45.8099 6.10887C47.5176 6.11087 48.0011 7.20877 47.9991 8.44024L44.2698 8.43608H44.2697ZM7.64864 4.23828C6.54623 4.237 5.64782 4.98826 5.64655 5.91308C5.64577 6.36153 5.65191 7.46263 5.65191 7.46263C5.6525 7.53653 5.72307 7.59636 5.81021 7.59636H5.81099C5.81099 7.59636 7.16138 7.59196 7.64309 7.59252C8.7456 7.59364 9.64381 6.8423 9.64537 5.91772C9.64683 4.9929 8.75116 4.23956 7.64864 4.23828ZM7.64377 7.2374C7.28624 7.237 6.41922 7.23948 6.07085 7.2406C6.06919 6.95235 6.06569 6.24404 6.06617 5.91372C6.06744 5.1847 6.77704 4.59252 7.64796 4.59348C8.51907 4.59452 9.22673 5.18822 9.22546 5.91732C9.22448 6.64611 8.51469 7.23844 7.64377 7.2374Z" fill="#DB0011"/>
</svg>
