<svg width="25" height="17" viewBox="0 0 25 17" fill="none" xmlns="http://www.w3.org/2000/svg">
<path d="M2.11914 16.3376C1.55195 16.3376 1.06641 16.1356 0.6625 15.7317C0.258594 15.3278 0.0566406 14.8423 0.0566406 14.2751V2.7251C0.0566406 2.15791 0.258594 1.67236 0.6625 1.26846C1.06641 0.864551 1.55195 0.662598 2.11914 0.662598H13.6691C14.2363 0.662598 14.7219 0.864551 15.1258 1.26846C15.5297 1.67236 15.7316 2.15791 15.7316 2.7251V14.2751C15.7316 14.8423 15.5297 15.3278 15.1258 15.7317C14.7219 16.1356 14.2363 16.3376 13.6691 16.3376H2.11914ZM19.5299 7.1251C19.2206 7.1251 18.9686 7.0277 18.7738 6.83291C18.579 6.63812 18.4816 6.38609 18.4816 6.07683V1.71086C18.4816 1.4016 18.579 1.14958 18.7738 0.954785C18.9686 0.759993 19.2206 0.662598 19.5299 0.662598H23.8959C24.2051 0.662598 24.4572 0.759993 24.652 0.954785C24.8467 1.14958 24.9441 1.4016 24.9441 1.71086V6.07683C24.9441 6.38609 24.8467 6.63812 24.652 6.83291C24.4572 7.0277 24.2051 7.1251 23.8959 7.1251H19.5299ZM19.4441 6.1626H23.9816V1.6251H19.4441V6.1626ZM2.11914 15.3751H13.6691C13.99 15.3751 14.2535 15.272 14.4598 15.0657C14.666 14.8595 14.7691 14.5959 14.7691 14.2751V2.7251C14.7691 2.40426 14.666 2.14072 14.4598 1.93447C14.2535 1.72822 13.99 1.6251 13.6691 1.6251H2.11914C1.79831 1.6251 1.53477 1.72822 1.32852 1.93447C1.12227 2.14072 1.01914 2.40426 1.01914 2.7251V14.2751C1.01914 14.5959 1.12227 14.8595 1.32852 15.0657C1.53477 15.272 1.79831 15.3751 2.11914 15.3751ZM3.76914 12.4532H12.0191C12.2139 12.4532 12.36 12.3616 12.4574 12.1782C12.5548 11.9949 12.5462 11.8116 12.4316 11.6282L10.1973 8.6376C10.0827 8.5001 9.94518 8.43135 9.78477 8.43135C9.62435 8.43135 9.48685 8.5001 9.37227 8.6376L7.20664 11.5251L5.72852 9.56572C5.61393 9.42822 5.47643 9.35947 5.31602 9.35947C5.1556 9.35947 5.0181 9.42822 4.90352 9.56572L3.35664 11.6282C3.24206 11.8116 3.23346 11.9949 3.33086 12.1782C3.42826 12.3616 3.57435 12.4532 3.76914 12.4532ZM19.5299 16.3376C19.2206 16.3376 18.9686 16.2402 18.7738 16.0454C18.579 15.8506 18.4816 15.5986 18.4816 15.2893V10.9234C18.4816 10.6141 18.579 10.3621 18.7738 10.1673C18.9686 9.97249 19.2206 9.8751 19.5299 9.8751H23.8959C24.2051 9.8751 24.4572 9.97249 24.652 10.1673C24.8467 10.3621 24.9441 10.6141 24.9441 10.9234V15.2893C24.9441 15.5986 24.8467 15.8506 24.652 16.0454C24.4572 16.2402 24.2051 16.3376 23.8959 16.3376H19.5299ZM19.4441 15.3751H23.9816V10.8376H19.4441V15.3751Z" fill="#E40000"/>
</svg>
