<svg width="24" height="24" viewBox="0 0 24 24" fill="none" xmlns="http://www.w3.org/2000/svg">
<g id="Profile">
<g id="Group 6">
<path id="Union" d="M4.06149 19.002L3.31723 18.9094L4.06149 19.002ZM19.9382 19.002L20.6825 18.9094V18.9094L19.9382 19.002ZM14.25 7C14.25 8.24264 13.2426 9.25 12 9.25V10.75C14.0711 10.75 15.75 9.07107 15.75 7H14.25ZM12 4.75C13.2426 4.75 14.25 5.75736 14.25 7H15.75C15.75 4.92893 14.0711 3.25 12 3.25V4.75ZM9.75 7C9.75 5.75736 10.7574 4.75 12 4.75V3.25C9.92893 3.25 8.25 4.92893 8.25 7H9.75ZM12 9.25C10.7574 9.25 9.75 8.24264 9.75 7H8.25C8.25 9.07107 9.92893 10.75 12 10.75V9.25ZM11.9998 11.25C7.53645 11.25 3.85459 14.5913 3.31723 18.9094L4.80575 19.0946C5.25082 15.5182 8.30263 12.75 11.9998 12.75V11.25ZM20.6825 18.9094C20.1451 14.5913 16.4632 11.25 11.9998 11.25V12.75C15.6971 12.75 18.7489 15.5182 19.1939 19.0946L20.6825 18.9094ZM18.9998 20.75C19.9378 20.75 20.8141 19.9673 20.6825 18.9094L19.1939 19.0946C19.1981 19.1282 19.19 19.1567 19.1611 19.1866C19.1284 19.2207 19.0719 19.25 18.9998 19.25V20.75ZM4.99984 20.75H18.9998V19.25H4.99984V20.75ZM3.31723 18.9094C3.18557 19.9673 4.06186 20.75 4.99984 20.75V19.25C4.92777 19.25 4.87129 19.2207 4.83854 19.1866C4.80972 19.1566 4.80157 19.1282 4.80575 19.0946L3.31723 18.9094Z" fill="white"/>
</g>
</g>
</svg>
