<svg xmlns="http://www.w3.org/2000/svg" width="17" height="17" viewBox="0 0 17 17" fill="none">
  <path d="M7.55952 10.4286V10.1071C7.55952 9.64286 7.63095 9.2619 7.77381 8.96429C7.91667 8.6627 8.18254 8.34524 8.57143 8.0119C9.11111 7.55556 9.4504 7.2123 9.58929 6.98214C9.73214 6.75198 9.80357 6.47421 9.80357 6.14881C9.80357 5.74405 9.67262 5.43254 9.41071 5.21429C9.15278 4.99206 8.77976 4.88095 8.29167 4.88095C7.97817 4.88095 7.67262 4.91865 7.375 4.99405C7.07738 5.06548 6.73611 5.19841 6.35119 5.39286L6 4.58929C6.75 4.19643 7.53373 4 8.35119 4C9.10913 4 9.69841 4.18651 10.119 4.55952C10.5397 4.93254 10.75 5.45833 10.75 6.1369C10.75 6.42659 10.7103 6.68254 10.631 6.90476C10.5556 7.12302 10.4425 7.33135 10.2917 7.52976C10.1409 7.72421 9.81548 8.03968 9.31548 8.47619C8.91468 8.81746 8.64881 9.10119 8.51786 9.32738C8.39087 9.55357 8.32738 9.85516 8.32738 10.2321V10.4286H7.55952ZM7.26786 12.1964C7.26786 11.6567 7.50595 11.3869 7.98214 11.3869C8.2123 11.3869 8.38889 11.4563 8.5119 11.5952C8.63889 11.7341 8.70238 11.9345 8.70238 12.1964C8.70238 12.4504 8.63889 12.6488 8.5119 12.7917C8.38492 12.9306 8.20833 13 7.98214 13C7.77579 13 7.60516 12.9385 7.47024 12.8155C7.33532 12.6885 7.26786 12.4821 7.26786 12.1964Z" fill="#131313"/>
  <circle cx="8.5" cy="8.5" r="8" stroke="#202020"/>
</svg>