<svg width="24" height="24" viewBox="0 0 24 24" fill="none" xmlns="http://www.w3.org/2000/svg">
<path d="M0 13.752C0 11.832 0.12 10.08 0.36 8.496C0.648 6.864 1.152 5.472 1.872 4.32C2.592 3.12 3.552 2.16 4.752 1.44C6 0.672001 7.584 0.192 9.504 0V5.04C8.256 5.28 7.32 5.952 6.696 7.056C6.072 8.16 5.76 9.384 5.76 10.728V11.88H9.504V23.112H0V13.752ZM14.04 13.752C14.04 11.832 14.16 10.08 14.4 8.496C14.688 6.864 15.192 5.472 15.912 4.32C16.632 3.12 17.592 2.16 18.792 1.44C20.04 0.672001 21.624 0.192 23.544 0V5.04C22.296 5.28 21.36 5.952 20.736 7.056C20.112 8.16 19.8 9.384 19.8 10.728V11.88H23.544V23.112H14.04V13.752Z" fill="#EE0000"/>
</svg>