<svg width="18" height="18" viewBox="0 0 18 18" fill="none" xmlns="http://www.w3.org/2000/svg">
<path d="M17.1486 10.6277C17.125 13.4095 16.971 14.943 15.959 15.9542C14.7661 17.1479 12.8447 17.1479 9.00289 17.1479C5.16022 17.1479 3.2397 17.1479 2.046 15.9542C0.852295 14.7605 0.852295 12.8399 0.852295 8.99727C0.852295 5.15541 0.852295 3.23408 2.046 2.04119C3.05718 1.02919 4.59067 0.875192 7.37244 0.851562" stroke="black" stroke-linecap="round"/>
<path d="M17.1485 4.92564H10.63C9.14865 4.92564 8.25643 5.65245 7.9248 5.9849C7.82295 6.08838 7.77161 6.13971 7.76998 6.13971C7.76998 6.14134 7.71865 6.19267 7.61517 6.29453C7.28272 6.62616 6.55591 7.51838 6.55591 8.99971V11.4442M17.1485 4.92564L13.0744 0.851562M17.1485 4.92564L13.0744 8.99971" stroke="black" stroke-linecap="round" stroke-linejoin="round"/>
</svg>
