<svg xmlns="http://www.w3.org/2000/svg" width="23" height="23" viewBox="0 0 23 23" fill="none">
  <g opacity="0.8">
    <circle cx="11.5" cy="11.5" r="11.5" fill="white"/>
    <path d="M11.6719 17H10.375V8.4375H11.6719V17ZM10.2656 6.11719C10.2656 5.82031 10.3385 5.60417 10.4844 5.46875C10.6302 5.32812 10.8125 5.25781 11.0312 5.25781C11.2396 5.25781 11.4193 5.32812 11.5703 5.46875C11.7214 5.60938 11.7969 5.82552 11.7969 6.11719C11.7969 6.40885 11.7214 6.6276 11.5703 6.77344C11.4193 6.91406 11.2396 6.98438 11.0312 6.98438C10.8125 6.98438 10.6302 6.91406 10.4844 6.77344C10.3385 6.6276 10.2656 6.40885 10.2656 6.11719Z" fill="#202020"/>
  </g>
</svg>