<svg width="20" height="20" viewBox="0 0 20 20" fill="none" xmlns="http://www.w3.org/2000/svg">
<path d="M19.1663 11.8312C19.1398 14.9607 18.9665 16.6858 17.828 17.8234C16.486 19.1663 14.3245 19.1663 10.0024 19.1663C5.67942 19.1663 3.51884 19.1663 2.17592 17.8234C0.833008 16.4805 0.833008 14.3199 0.833008 9.99692C0.833008 5.67484 0.833008 3.51334 2.17592 2.17134C3.31351 1.03284 5.03867 0.859591 8.16817 0.833008" stroke="white" stroke-width="1.5" stroke-linecap="round"/>
<path d="M19.1667 5.41634H11.8333C10.1668 5.41634 9.16308 6.23401 8.79 6.60801C8.67542 6.72442 8.61767 6.78217 8.61583 6.78217C8.61583 6.78401 8.55808 6.84176 8.44167 6.95634C8.06767 7.32942 7.25 8.33317 7.25 9.99967V12.7497M19.1667 5.41634L14.5833 0.833008M19.1667 5.41634L14.5833 9.99967" stroke="white" stroke-width="1.5" stroke-linecap="round" stroke-linejoin="round"/>
</svg>
