<svg width="45" height="44" viewBox="0 0 45 44" fill="none" xmlns="http://www.w3.org/2000/svg">
<g clip-path="url(#clip0_1406_57188)">
<path d="M0 27.7064C0.0517494 27.4719 0.105701 27.2386 0.156349 27.0042C0.527404 25.297 1.40604 23.9336 2.84732 23.0231C4.6068 21.9112 6.41033 20.8732 8.19513 19.8034C8.7897 19.4472 9.37766 19.0762 9.98434 18.7416C10.3818 18.5219 10.6879 18.2249 10.9632 17.8607C14.6099 13.0454 18.2643 8.23693 21.9153 3.42619C22.2974 2.92315 22.6949 2.45539 23.3038 2.21867C24.4412 1.77708 25.7261 2.16631 26.4131 3.20426C26.619 3.5161 26.793 3.84956 26.9769 4.17733C27.8996 5.82758 28.82 7.47896 29.7614 9.16675C29.9035 9.16675 30.0609 9.17472 30.2184 9.16562C31.1102 9.11099 32.0032 9.06888 32.8928 8.98921C33.4599 8.93914 33.8375 9.14968 34.1106 9.66638C34.5951 10.5814 35.1004 11.4862 35.6223 12.3785C35.8998 12.8519 35.891 13.2707 35.5915 13.7248C34.9991 14.6239 34.4266 15.5378 33.8375 16.4585C34.0027 16.7567 34.1612 17.0447 34.322 17.3303C35.1115 18.745 35.8976 20.1619 36.6937 21.5732C37.1704 22.4176 37.253 23.2837 36.8533 24.176C36.4867 24.9931 35.8844 25.5372 35.0179 25.7124C29.4487 26.8391 23.8774 27.9579 18.3072 29.0801C18.1519 29.1108 18 29.1563 17.7985 29.2064C17.935 29.4556 18.054 29.6764 18.1762 29.8961C18.3942 30.2899 18.6188 30.6802 18.8313 31.0763C19.1792 31.725 19.0614 32.1893 18.4503 32.566C17.8844 32.9143 17.3118 33.2489 16.7415 33.5903C16.616 33.6655 16.4916 33.7428 16.3407 33.835C16.4057 33.9659 16.4574 34.0854 16.5202 34.1981C17.2942 35.5877 18.0672 36.9773 18.8445 38.3647C19.2101 39.0179 19.4479 39.7099 19.4204 40.4736C19.3279 42.9489 17.0267 44.565 14.8092 43.8116C13.8666 43.4918 13.2192 42.8306 12.7348 41.961C11.3915 39.5494 10.0427 37.1412 8.69501 34.7318C8.61573 34.5896 8.53095 34.4507 8.45168 34.3153C7.99034 34.4246 7.55652 34.552 7.1139 34.6294C3.84597 35.203 0.678248 32.8802 0.0968926 29.4932C0.0770736 29.3794 0.0330316 29.269 0 29.1574C0 28.6726 0 28.1878 0 27.703L0 27.7064ZM32.1893 24.4173C28.7936 18.3375 25.4222 12.3011 22.0276 6.22363C18.7267 10.5712 15.4566 14.8777 12.1897 19.1786C13.7565 21.984 15.2991 24.7462 16.8527 27.5266C21.966 26.4897 27.0573 25.4575 32.1893 24.4173ZM10.8112 20.3508C10.6494 20.4442 10.5239 20.5159 10.3994 20.5898C8.62564 21.6471 6.85185 22.7033 5.07915 23.7617C4.63653 24.0269 4.1851 24.2796 3.76009 24.572C2.21642 25.6328 1.49633 27.4184 1.85968 29.2986C2.21201 31.1184 3.6599 32.4978 5.35552 32.8107C6.4885 33.0201 7.52899 32.7971 8.51444 32.2064C10.6274 30.9397 12.7436 29.6821 14.8587 28.42C14.9688 28.3539 15.0701 28.2754 15.1923 28.1923C13.7268 25.569 12.2734 22.9685 10.8112 20.352V20.3508ZM23.1959 4.6781C26.8106 11.1493 30.4078 17.591 34.0126 24.044C34.2724 23.9962 34.507 23.9757 34.7283 23.9074C35.2381 23.7492 35.4726 23.2257 35.2755 22.7158C35.2271 22.5906 35.1599 22.4723 35.0938 22.3539C31.7797 16.4187 28.4655 10.4847 25.1502 4.55063C25.0776 4.41975 25.0038 4.28659 24.9102 4.17164C24.5689 3.74941 24.0051 3.72323 23.6363 4.11701C23.4843 4.27862 23.3588 4.46755 23.1959 4.67696V4.6781ZM9.99205 33.4208C11.473 36.0725 12.9197 38.664 14.3687 41.2554C14.4194 41.3465 14.4799 41.4341 14.5449 41.5149C15.0139 42.0896 15.6195 42.3013 16.3154 42.1363C16.9793 41.9793 17.4098 41.5297 17.6014 40.8446C17.76 40.2778 17.6036 39.7759 17.3295 39.2877C15.9598 36.8407 14.5955 34.3927 13.228 31.9446C13.1708 31.8411 13.1058 31.7432 13.0254 31.6112C12.018 32.2121 11.0215 32.8062 9.99205 33.4208ZM30.759 10.9513C31.4747 12.2328 32.1452 13.4335 32.8521 14.699C33.2342 14.1027 33.5843 13.5553 33.9366 13.0056C33.5215 12.2624 33.1207 11.5465 32.7222 10.8352C32.0736 10.8739 31.4637 10.9103 30.759 10.9524V10.9513ZM15.4434 32.2667C15.9774 31.9446 16.4607 31.6533 16.9595 31.3528C16.6468 30.7974 16.3649 30.2955 16.0776 29.7845C15.5447 30.1066 15.0602 30.4002 14.5647 30.7007C14.8686 31.2436 15.1461 31.7364 15.4434 32.2667Z" fill="white"/>
<path d="M39.2016 8.50544C38.8262 8.44739 38.574 8.25392 38.4397 7.92387C38.2988 7.57561 38.3505 7.23532 38.6137 6.96218C38.7348 6.83585 38.8878 6.73569 39.0398 6.64806C40.5185 5.79335 41.9983 4.94091 43.4814 4.09531C43.6576 3.99515 43.8547 3.9098 44.0507 3.88021C44.4415 3.82216 44.7774 4.04637 44.9249 4.4117C45.0779 4.78955 44.9954 5.1617 44.6904 5.43371C44.6023 5.51224 44.5032 5.57939 44.4019 5.63743C42.8714 6.51946 41.341 7.40262 39.8061 8.27554C39.62 8.38138 39.4031 8.42918 39.2005 8.50316L39.2016 8.50544Z" fill="white"/>
<path d="M39.7295 12.4352C39.7614 12.442 39.877 12.4614 39.9882 12.4921C40.9748 12.7641 41.9613 13.035 42.9467 13.3127C43.0998 13.3559 43.2561 13.4083 43.3949 13.4879C43.7516 13.6928 43.9036 14.0957 43.7957 14.494C43.6866 14.898 43.3156 15.1757 42.906 15.145C42.7618 15.1348 42.6175 15.0983 42.4766 15.0596C41.5033 14.7922 40.5321 14.5225 39.5599 14.2516C39.4476 14.2197 39.3353 14.1833 39.2296 14.1332C38.8145 13.9329 38.613 13.5141 38.7231 13.0964C38.8387 12.6571 39.18 12.4113 39.7295 12.4352Z" fill="white"/>
<path d="M33.7451 4.26142C33.7572 4.2011 33.7825 4.05315 33.8188 3.90748C34.0666 2.93099 34.3154 1.95336 34.5708 0.979149C34.6204 0.791363 34.6809 0.600163 34.7723 0.432862C34.9683 0.0754996 35.3933 -0.0815579 35.7545 0.0413567C36.1519 0.17679 36.4041 0.553501 36.3634 0.976873C36.3479 1.14076 36.3072 1.30351 36.2665 1.46398C36.0198 2.42567 35.7699 3.38623 35.5177 4.34678C35.4803 4.49132 35.4385 4.63813 35.3768 4.77243C35.1808 5.19922 34.7922 5.38586 34.3638 5.27092C33.9664 5.16394 33.7274 4.80999 33.7451 4.26142Z" fill="white"/>
<path d="M6.10066 31.0829C5.2055 31.0431 4.47 30.6481 3.95471 29.8435C3.65412 29.3735 3.72569 28.8591 4.12427 28.5529C4.50193 28.2627 4.97428 28.3378 5.33432 28.7475C5.36405 28.7817 5.39158 28.8158 5.42131 28.85C5.82319 29.3154 6.16672 29.3849 6.70293 29.0833C7.12684 28.8443 7.53533 28.5768 7.96253 28.3435C8.1387 28.2479 8.3413 28.1716 8.53728 28.1523C8.89843 28.117 9.19461 28.3264 9.33995 28.661C9.4919 29.0116 9.45556 29.4372 9.15608 29.6534C8.35451 30.2316 7.54524 30.812 6.5697 31.0488C6.42987 31.0829 6.27903 31.0704 6.10176 31.0818L6.10066 31.0829Z" fill="white"/>
<path d="M11.5981 26.3281C12.0826 26.327 12.4668 26.7139 12.4701 27.209C12.4734 27.6984 12.0804 28.1013 11.6025 28.099C11.1158 28.0967 10.7316 27.7075 10.7305 27.2158C10.7294 26.7208 11.1114 26.3293 11.597 26.3281H11.5981Z" fill="white"/>
</g>
<defs>
<clipPath id="clip0_1406_57188">
<rect width="45" height="44" fill="white"/>
</clipPath>
</defs>
</svg>