<svg width="104" height="106" viewBox="0 0 104 106" fill="none" xmlns="http://www.w3.org/2000/svg">
<path d="M52 104.464C79.6142 104.464 102 81.621 102 53.4422C102 25.2634 79.6142 2.41992 52 2.41992C24.3858 2.41992 2 25.2634 2 53.4422C2 81.621 24.3858 104.464 52 104.464Z" fill="white" stroke="#E40000" stroke-width="3"/>
<path d="M52.0013 103.796C79.2522 103.796 101.343 81.2527 101.343 53.4447C101.343 25.6366 79.2522 3.09375 52.0013 3.09375C24.7504 3.09375 2.65918 25.6366 2.65918 53.4447C2.65918 81.2527 24.7504 103.796 52.0013 103.796Z" stroke="#E40000" stroke-width="2"/>
<path d="M46.9688 54.8217C47.0027 56.0217 47.5032 57.161 48.3639 57.9978C49.2247 58.8345 50.3777 59.3026 51.5781 59.3026C52.7785 59.3026 53.9316 58.8345 54.7923 57.9978C55.653 57.161 56.1536 56.0217 56.1875 54.8217V25.2738C56.1536 24.0739 55.653 22.9345 54.7923 22.0978C53.9316 21.2611 52.7785 20.793 51.5781 20.793C50.3777 20.793 49.2247 21.2611 48.3639 22.0978C47.5032 22.9345 47.0027 24.0739 46.9688 25.2738V54.8217ZM46.9688 67.704C46.9688 70.2392 49.043 72.3134 51.5781 72.3134C54.1133 72.3134 56.1875 70.2392 56.1875 67.704C56.1875 65.1689 54.1133 63.0946 51.5781 63.0946C50.3568 63.0985 49.1867 63.5854 48.3231 64.449C47.4595 65.3126 46.9726 66.4827 46.9688 67.704Z" fill="#E40000"/>
</svg>
