<svg width="37" height="37" viewBox="0 0 37 37" fill="none" xmlns="http://www.w3.org/2000/svg">
<path d="M34.4263 10.4706C34.044 9.03109 32.9176 7.89732 31.4873 7.5125C28.895 6.81348 18.4999 6.81348 18.4999 6.81348C18.4999 6.81348 8.10488 6.81348 5.51242 7.51257C4.08221 7.89739 2.95581 9.03109 2.57352 10.4706C1.87891 13.0798 1.87891 18.5238 1.87891 18.5238C1.87891 18.5238 1.87891 23.9678 2.57352 26.5769C2.95581 28.0164 4.08221 29.1029 5.51242 29.4878C8.10488 30.1869 18.4999 30.1869 18.4999 30.1869C18.4999 30.1869 28.895 30.1869 31.4873 29.4878C32.9176 29.1029 34.044 28.0164 34.4263 26.5768C35.1209 23.9677 35.1209 18.5237 35.1209 18.5237C35.1209 18.5237 35.1209 13.0798 34.4263 10.4706Z" fill="#FF0000"/>
<path d="M15.1016 23.4665V13.5811L23.7898 18.5239L15.1016 23.4665Z" fill="white"/>
</svg>
